<svg width="156" height="52" viewBox="0 0 156 52" fill="none" xmlns="http://www.w3.org/2000/svg">
<rect x="0.5" y="0.5" width="155" height="51" rx="6.5" fill="black"/>
<rect x="0.5" y="0.5" width="155" height="51" rx="6.5" stroke="#A6A6A6"/>
<path d="M105.984 24.9615V27.9398H104.117V29.893H105.984V36.5294C105.984 38.7955 107.009 39.702 109.588 39.702C110.041 39.702 110.473 39.648 110.85 39.5833V37.6517C110.527 37.6841 110.322 37.7056 109.966 37.7056C108.811 37.7056 108.304 37.1661 108.304 35.9359V29.893H110.85V27.9398H108.304V24.9615H105.984Z" fill="white"/>
<path d="M117.42 39.8638C120.852 39.8638 122.956 37.5654 122.956 33.7561C122.956 29.9685 120.841 27.6592 117.42 27.6592C113.989 27.6592 111.874 29.9685 111.874 33.7561C111.874 37.5654 113.978 39.8638 117.42 39.8638ZM117.42 37.8028C115.403 37.8028 114.269 36.3244 114.269 33.7561C114.269 31.2095 115.403 29.7203 117.42 29.7203C119.428 29.7203 120.571 31.2095 120.571 33.7561C120.571 36.3136 119.428 37.8028 117.42 37.8028Z" fill="white"/>
<path d="M124.757 39.6372H127.077V32.6986C127.077 31.0476 128.318 29.9361 130.077 29.9361C130.487 29.9361 131.177 30.0117 131.371 30.0764V27.7887C131.123 27.724 130.681 27.6916 130.336 27.6916C128.803 27.6916 127.498 28.5333 127.163 29.6879H126.99V27.8858H124.757V39.6372Z" fill="white"/>
<path d="M137.132 29.634C138.848 29.634 139.97 30.8318 140.024 32.677H134.089C134.219 30.8426 135.416 29.634 137.132 29.634ZM140.013 36.4647C139.582 37.3819 138.621 37.8891 137.218 37.8891C135.362 37.8891 134.165 36.5834 134.089 34.5223V34.3928H142.387V33.5835C142.387 29.893 140.413 27.6592 137.143 27.6592C133.83 27.6592 131.726 30.044 131.726 33.7993C131.726 37.5546 133.787 39.8638 137.154 39.8638C139.841 39.8638 141.718 38.5689 142.247 36.4647H140.013Z" fill="white"/>
<path d="M90.769 35.2976C90.948 38.1832 93.3527 40.0287 96.9317 40.0287C100.757 40.0287 103.15 38.0938 103.15 35.0068C103.15 32.5798 101.786 31.2376 98.4752 30.4659L96.6968 30.0297C94.5941 29.5376 93.7441 28.8777 93.7441 27.7257C93.7441 26.2717 95.0639 25.321 97.0436 25.321C98.9226 25.321 100.22 26.2493 100.455 27.7369H102.893C102.748 25.019 100.354 23.1064 97.0771 23.1064C93.554 23.1064 91.2052 25.019 91.2052 27.8934C91.2052 30.2646 92.5362 31.6738 95.4554 32.3561L97.5357 32.8594C99.6719 33.3627 100.611 34.1009 100.611 35.3312C100.611 36.7628 99.1351 37.803 97.1219 37.803C94.9632 37.803 93.4645 36.8299 93.252 35.2976H90.769Z" fill="white"/>
<path d="M66.7355 27.6916C65.1384 27.6916 63.7572 28.4901 63.045 29.8282H62.8723V27.8858H60.6386V43.5436H62.9586V37.8567H63.1421C63.7572 39.0977 65.0845 39.8315 66.7571 39.8315C69.7246 39.8315 71.613 37.4898 71.613 33.7561C71.613 30.0224 69.7246 27.6916 66.7355 27.6916ZM66.0772 37.7488C64.1349 37.7488 62.9155 36.2165 62.9155 33.7669C62.9155 31.3066 64.1349 29.7743 66.088 29.7743C68.052 29.7743 69.2282 31.2742 69.2282 33.7561C69.2282 36.2489 68.052 37.7488 66.0772 37.7488Z" fill="white"/>
<path d="M79.7313 27.6916C78.1343 27.6916 76.753 28.4901 76.0408 29.8282H75.8681V27.8858H73.6344V43.5436H75.9545V37.8567H76.1379C76.753 39.0977 78.0803 39.8315 79.7529 39.8315C82.7204 39.8315 84.6089 37.4898 84.6089 33.7561C84.6089 30.0224 82.7204 27.6916 79.7313 27.6916ZM79.0731 37.7488C77.1307 37.7488 75.9113 36.2165 75.9113 33.7669C75.9113 31.3066 77.1307 29.7743 79.0839 29.7743C81.0478 29.7743 82.224 31.2742 82.224 33.7561C82.224 36.2489 81.0478 37.7488 79.0731 37.7488Z" fill="white"/>
<path d="M56.476 39.6372H59.1379L53.3107 23.4979H50.6152L44.7881 39.6372H47.3605L48.8481 35.3535H54.9996L56.476 39.6372ZM51.8344 26.4283H52.0245L54.3621 33.2508H49.4856L51.8344 26.4283Z" fill="white"/>
<path d="M46.3464 11.3245V19.1102H49.1575C51.4776 19.1102 52.821 17.6804 52.821 15.1931C52.821 12.7435 51.4668 11.3245 49.1575 11.3245H46.3464ZM47.555 12.4252H49.0226C50.6359 12.4252 51.5909 13.4503 51.5909 15.2093C51.5909 16.9952 50.6521 18.0095 49.0226 18.0095H47.555V12.4252Z" fill="white"/>
<path d="M56.9357 19.2235C58.6514 19.2235 59.7036 18.0743 59.7036 16.1697C59.7036 14.2758 58.646 13.1212 56.9357 13.1212C55.2199 13.1212 54.1624 14.2758 54.1624 16.1697C54.1624 18.0743 55.2145 19.2235 56.9357 19.2235ZM56.9357 18.193C55.9267 18.193 55.3602 17.4538 55.3602 16.1697C55.3602 14.8963 55.9267 14.1517 56.9357 14.1517C57.9392 14.1517 58.5111 14.8963 58.5111 16.1697C58.5111 17.4484 57.9392 18.193 56.9357 18.193Z" fill="white"/>
<path d="M68.6633 13.2345H67.5033L66.4566 17.7182H66.3648L65.1563 13.2345H64.0448L62.8362 17.7182H62.7499L61.6977 13.2345H60.5215L62.1402 19.1102H63.3326L64.5412 14.783H64.6329L65.8469 19.1102H67.0501L68.6633 13.2345Z" fill="white"/>
<path d="M69.9993 19.1102H71.1593V15.6733C71.1593 14.756 71.7042 14.1841 72.5621 14.1841C73.42 14.1841 73.8301 14.6535 73.8301 15.5977V19.1102H74.9901V15.3064C74.9901 13.9089 74.2671 13.1212 72.956 13.1212C72.0711 13.1212 71.4884 13.5151 71.2025 14.1679H71.1161V13.2345H69.9993V19.1102Z" fill="white"/>
<path d="M76.817 19.1102H77.9771V10.9414H76.817V19.1102Z" fill="white"/>
<path d="M82.3399 19.2235C84.0556 19.2235 85.1078 18.0743 85.1078 16.1697C85.1078 14.2758 84.0502 13.1212 82.3399 13.1212C80.6241 13.1212 79.5666 14.2758 79.5666 16.1697C79.5666 18.0743 80.6187 19.2235 82.3399 19.2235ZM82.3399 18.193C81.3309 18.193 80.7644 17.4538 80.7644 16.1697C80.7644 14.8963 81.3309 14.1517 82.3399 14.1517C83.3434 14.1517 83.9154 14.8963 83.9154 16.1697C83.9154 17.4484 83.3434 18.193 82.3399 18.193Z" fill="white"/>
<path d="M88.5641 18.2307C87.9328 18.2307 87.4742 17.9232 87.4742 17.3944C87.4742 16.8765 87.8411 16.6013 88.6504 16.5473L90.0857 16.4556V16.9466C90.0857 17.675 89.4382 18.2307 88.5641 18.2307ZM88.2674 19.2073C89.0389 19.2073 89.681 18.8728 90.0317 18.2847H90.1234V19.1102H91.2403V15.0959C91.2403 13.855 90.4094 13.1212 88.9364 13.1212C87.6037 13.1212 86.6541 13.7687 86.5354 14.7776H87.6577C87.7872 14.3622 88.235 14.1248 88.8825 14.1248C89.6756 14.1248 90.0857 14.4755 90.0857 15.0959V15.6031L88.494 15.6948C87.0965 15.7812 86.3088 16.3909 86.3088 17.4484C86.3088 18.5221 87.1343 19.2073 88.2674 19.2073Z" fill="white"/>
<path d="M95.1769 19.2073C95.9862 19.2073 96.6714 18.8242 97.0221 18.1822H97.1138V19.1102H98.2253V10.9414H97.0653V14.1679H96.979C96.6606 13.5205 95.9808 13.1374 95.1769 13.1374C93.6931 13.1374 92.7381 14.3136 92.7381 16.1697C92.7381 18.0311 93.6823 19.2073 95.1769 19.2073ZM95.506 14.1787C96.4772 14.1787 97.0869 14.9503 97.0869 16.175C97.0869 17.4052 96.4826 18.166 95.506 18.166C94.524 18.166 93.9359 17.416 93.9359 16.1697C93.9359 14.9341 94.5294 14.1787 95.506 14.1787Z" fill="white"/>
<path d="M105.748 19.2235C107.464 19.2235 108.516 18.0743 108.516 16.1697C108.516 14.2758 107.458 13.1212 105.748 13.1212C104.032 13.1212 102.974 14.2758 102.974 16.1697C102.974 18.0743 104.027 19.2235 105.748 19.2235ZM105.748 18.193C104.739 18.193 104.172 17.4538 104.172 16.1697C104.172 14.8963 104.739 14.1517 105.748 14.1517C106.751 14.1517 107.323 14.8963 107.323 16.1697C107.323 17.4484 106.751 18.193 105.748 18.193Z" fill="white"/>
<path d="M110.051 19.1102H111.211V15.6733C111.211 14.756 111.756 14.1841 112.614 14.1841C113.472 14.1841 113.882 14.6535 113.882 15.5977V19.1102H115.042V15.3064C115.042 13.9089 114.319 13.1212 113.008 13.1212C112.123 13.1212 111.54 13.5151 111.254 14.1679H111.168V13.2345H110.051V19.1102Z" fill="white"/>
<path d="M120.385 11.7723V13.2615H119.451V14.2381H120.385V17.5563C120.385 18.6894 120.897 19.1426 122.187 19.1426C122.413 19.1426 122.629 19.1156 122.818 19.0832V18.1174C122.656 18.1336 122.554 18.1444 122.376 18.1444C121.798 18.1444 121.545 17.8746 121.545 17.2595V14.2381H122.818V13.2615H121.545V11.7723H120.385Z" fill="white"/>
<path d="M124.375 19.1102H125.535V15.6787C125.535 14.7884 126.064 14.1895 127.014 14.1895C127.834 14.1895 128.271 14.6643 128.271 15.6031V19.1102H129.431V15.3172C129.431 13.9197 128.659 13.1266 127.407 13.1266C126.523 13.1266 125.902 13.5205 125.616 14.1787H125.524V10.9414H124.375V19.1102Z" fill="white"/>
<path d="M133.616 14.1086C134.473 14.1086 135.035 14.7075 135.062 15.6301H132.094C132.159 14.7129 132.758 14.1086 133.616 14.1086ZM135.056 17.5239C134.84 17.9825 134.36 18.2361 133.659 18.2361C132.731 18.2361 132.132 17.5833 132.094 16.5527V16.488H136.243V16.0833C136.243 14.2381 135.256 13.1212 133.621 13.1212C131.965 13.1212 130.912 14.3136 130.912 16.1912C130.912 18.0689 131.943 19.2235 133.626 19.2235C134.97 19.2235 135.909 18.576 136.173 17.5239H135.056Z" fill="white"/>
<path d="M32.1996 26.3914C32.2278 24.2061 33.4014 22.1383 35.2632 20.9937C34.0887 19.3163 32.1214 18.2528 30.0747 18.1887C27.8916 17.9596 25.7753 19.495 24.6629 19.495C23.5289 19.495 21.8162 18.2115 19.9718 18.2494C17.5678 18.3271 15.3267 19.6939 14.157 21.7956C11.6428 26.1486 13.5182 32.546 15.9266 36.0645C17.1316 37.7875 18.5398 39.7121 20.3825 39.6438C22.1857 39.569 22.8592 38.494 25.0357 38.494C27.1921 38.494 27.824 39.6438 29.704 39.6004C31.6389 39.569 32.858 37.8698 34.0207 36.1306C34.8865 34.9029 35.5527 33.5461 35.9947 32.1103C33.7208 31.1486 32.2023 28.8603 32.1996 26.3914Z" fill="white"/>
<path d="M28.6485 15.8747C29.7035 14.6082 30.2232 12.9804 30.0974 11.3369C28.4856 11.5062 26.9967 12.2765 25.9275 13.4944C24.8819 14.6843 24.3378 16.2835 24.4407 17.8642C26.053 17.8808 27.6381 17.1314 28.6485 15.8747Z" fill="white"/>
</svg>
