<svg width="31" height="24" viewBox="0 0 31 24" fill="none" xmlns="http://www.w3.org/2000/svg">
<path fill-rule="evenodd" clip-rule="evenodd" d="M31 12C31 11.5849 30.842 11.1868 30.5607 10.8932C30.2794 10.5997 29.8978 10.4348 29.5 10.4348H1.5C1.10218 10.4348 0.720644 10.5997 0.43934 10.8932C0.158035 11.1868 0 11.5849 0 12C0 12.4151 0.158035 12.8132 0.43934 13.1068C0.720644 13.4003 1.10218 13.5652 1.5 13.5652H29.5C29.8978 13.5652 30.2794 13.4003 30.5607 13.1068C30.842 12.8132 31 12.4151 31 12ZM31 1.56522C31 1.1501 30.842 0.751977 30.5607 0.458441C30.2794 0.164906 29.8978 0 29.5 0H1.5C1.10218 0 0.720644 0.164906 0.43934 0.458441C0.158035 0.751977 0 1.1501 0 1.56522C0 1.98034 0.158035 2.37846 0.43934 2.67199C0.720644 2.96553 1.10218 3.13043 1.5 3.13043H29.5C29.8978 3.13043 30.2794 2.96553 30.5607 2.67199C30.842 2.37846 31 1.98034 31 1.56522ZM31 22.4348C31 22.0197 30.842 21.6215 30.5607 21.328C30.2794 21.0345 29.8978 20.8696 29.5 20.8696H1.5C1.10218 20.8696 0.720644 21.0345 0.43934 21.328C0.158035 21.6215 0 22.0197 0 22.4348C0 22.8499 0.158035 23.248 0.43934 23.5416C0.720644 23.8351 1.10218 24 1.5 24H29.5C29.8978 24 30.2794 23.8351 30.5607 23.5416C30.842 23.248 31 22.8499 31 22.4348Z" fill="white"/>
</svg>
