<svg viewBox="0 0 364 40" xmlns="http://www.w3.org/2000/svg" xmlns:xlink="http://www.w3.org/1999/xlink" width="364.000000" height="40.000000" fill="none" customFrame="#000000">
	<rect id="copyright" width="364.000000" height="40.000000" x="0.000000" y="0.000000" />
	<path id="18+" d="M12 8.10938L12 30.9375L8.23438 30.9375L8.23438 12.5781L2.65625 14.4688L2.65625 11.3594L11.5469 8.10938L12 8.10938ZM34.7812 24.7344C34.7812 26.151 34.4531 27.3438 33.7969 28.3125C33.1406 29.2812 32.2448 30.0156 31.1094 30.5156C29.9844 31.0052 28.7135 31.25 27.2969 31.25C25.8802 31.25 24.6042 31.0052 23.4688 30.5156C22.3333 30.0156 21.4375 29.2812 20.7812 28.3125C20.125 27.3438 19.7969 26.151 19.7969 24.7344C19.7969 23.7969 19.9792 22.9479 20.3438 22.1875C20.7083 21.4167 21.224 20.7552 21.8906 20.2031C22.5677 19.6406 23.3594 19.2083 24.2656 18.9062C25.1823 18.6042 26.1823 18.4531 27.2656 18.4531C28.7031 18.4531 29.9896 18.7188 31.125 19.25C32.2604 19.7812 33.151 20.5156 33.7969 21.4531C34.4531 22.3906 34.7812 23.4844 34.7812 24.7344ZM31 24.5469C31 23.7865 30.8438 23.1198 30.5312 22.5469C30.2188 21.974 29.7812 21.5312 29.2188 21.2188C28.6562 20.9062 28.0052 20.75 27.2656 20.75C26.5156 20.75 25.8646 20.9062 25.3125 21.2188C24.7604 21.5312 24.3281 21.974 24.0156 22.5469C23.7135 23.1198 23.5625 23.7865 23.5625 24.5469C23.5625 25.3177 23.7135 25.9844 24.0156 26.5469C24.3177 27.099 24.75 27.5208 25.3125 27.8125C25.875 28.1042 26.5365 28.25 27.2969 28.25C28.0573 28.25 28.7135 28.1042 29.2656 27.8125C29.8177 27.5208 30.2448 27.099 30.5469 26.5469C30.849 25.9844 31 25.3177 31 24.5469ZM34.2656 14.1719C34.2656 15.3073 33.9635 16.3177 33.3594 17.2031C32.7656 18.0885 31.9427 18.7865 30.8906 19.2969C29.8385 19.7969 28.6406 20.0469 27.2969 20.0469C25.9427 20.0469 24.7344 19.7969 23.6719 19.2969C22.6198 18.7865 21.7917 18.0885 21.1875 17.2031C20.5938 16.3177 20.2969 15.3073 20.2969 14.1719C20.2969 12.8177 20.5938 11.6771 21.1875 10.75C21.7917 9.8125 22.6198 9.09896 23.6719 8.60938C24.724 8.11979 25.9271 7.875 27.2812 7.875C28.6354 7.875 29.8385 8.11979 30.8906 8.60938C31.9427 9.09896 32.7656 9.8125 33.3594 10.75C33.9635 11.6771 34.2656 12.8177 34.2656 14.1719ZM30.5 14.2969C30.5 13.6198 30.3646 13.026 30.0938 12.5156C29.8333 11.9948 29.4635 11.5885 28.9844 11.2969C28.5052 11.0052 27.9375 10.8594 27.2812 10.8594C26.625 10.8594 26.0573 11 25.5781 11.2812C25.099 11.5625 24.7292 11.9583 24.4688 12.4688C24.2083 12.9792 24.0781 13.5885 24.0781 14.2969C24.0781 14.9948 24.2083 15.6042 24.4688 16.125C24.7292 16.6354 25.099 17.0365 25.5781 17.3281C26.0677 17.6198 26.6406 17.7656 27.2969 17.7656C27.9531 17.7656 28.5208 17.6198 29 17.3281C29.4792 17.0365 29.849 16.6354 30.1094 16.125C30.3698 15.6042 30.5 14.9948 30.5 14.2969ZM53 18.4688L53 21.8594L37.4062 21.8594L37.4062 18.4688L53 18.4688ZM47.0312 12.0938L47.0312 28.6562L43.3906 28.6562L43.3906 12.0938L47.0312 12.0938Z" fill="rgb(255,255,255)" fill-opacity="0.340000004" fill-rule="nonzero" />
	<path id="Copyright © 2025 Ripper Casino" d="M80.8438 22.207L83.2852 22.207C83.207 23.138 82.9466 23.9681 82.5039 24.6973C82.0612 25.4199 81.4395 25.9896 80.6387 26.4062C79.8379 26.8229 78.8646 27.0312 77.7188 27.0312C76.8398 27.0312 76.0488 26.875 75.3457 26.5625C74.6426 26.2435 74.0404 25.7943 73.5391 25.2148C73.0378 24.6289 72.6536 23.9225 72.3867 23.0957C72.1263 22.2689 71.9961 21.3444 71.9961 20.3223L71.9961 19.1406C71.9961 18.1185 72.1296 17.194 72.3965 16.3672C72.6699 15.5404 73.0605 14.834 73.5684 14.248C74.0762 13.6556 74.6849 13.2031 75.3945 12.8906C76.1107 12.5781 76.9147 12.4219 77.8066 12.4219C78.9395 12.4219 79.8965 12.6302 80.6777 13.0469C81.459 13.4635 82.0645 14.0397 82.4941 14.7754C82.9303 15.5111 83.1973 16.3542 83.2949 17.3047L80.8535 17.3047C80.7884 16.6927 80.6452 16.1686 80.4238 15.7324C80.209 15.2962 79.89 14.9642 79.4668 14.7363C79.0436 14.502 78.4902 14.3848 77.8066 14.3848C77.2467 14.3848 76.7585 14.4889 76.3418 14.6973C75.9251 14.9056 75.5768 15.2116 75.2969 15.6152C75.0169 16.0189 74.8053 16.5169 74.6621 17.1094C74.5254 17.6953 74.457 18.3659 74.457 19.1211L74.457 20.3223C74.457 21.0384 74.5189 21.6895 74.6426 22.2754C74.7728 22.8548 74.9681 23.3529 75.2285 23.7695C75.4954 24.1862 75.834 24.5085 76.2441 24.7363C76.6543 24.9642 77.1458 25.0781 77.7188 25.0781C78.4154 25.0781 78.9785 24.9674 79.4082 24.7461C79.8444 24.5247 80.1732 24.2025 80.3945 23.7793C80.6224 23.3496 80.7721 22.8255 80.8438 22.207ZM84.8281 21.6699L84.8281 21.4453C84.8281 20.6836 84.9388 19.9772 85.1602 19.3262C85.3815 18.6686 85.7005 18.099 86.1172 17.6172C86.5404 17.1289 87.0547 16.7513 87.6602 16.4844C88.2721 16.2109 88.9622 16.0742 89.7305 16.0742C90.5052 16.0742 91.1953 16.2109 91.8008 16.4844C92.4128 16.7513 92.9303 17.1289 93.3535 17.6172C93.7767 18.099 94.099 18.6686 94.3203 19.3262C94.5417 19.9772 94.6523 20.6836 94.6523 21.4453L94.6523 21.6699C94.6523 22.4316 94.5417 23.138 94.3203 23.7891C94.099 24.4401 93.7767 25.0098 93.3535 25.498C92.9303 25.9798 92.416 26.3574 91.8105 26.6309C91.2051 26.8978 90.5182 27.0312 89.75 27.0312C88.9753 27.0312 88.2819 26.8978 87.6699 26.6309C87.0645 26.3574 86.5501 25.9798 86.127 25.498C85.7038 25.0098 85.3815 24.4401 85.1602 23.7891C84.9388 23.138 84.8281 22.4316 84.8281 21.6699ZM87.1816 21.4453L87.1816 21.6699C87.1816 22.1452 87.2305 22.5944 87.3281 23.0176C87.4258 23.4408 87.5788 23.8118 87.7871 24.1309C87.9954 24.4499 88.2624 24.7005 88.5879 24.8828C88.9134 25.0651 89.3008 25.1562 89.75 25.1562C90.1862 25.1562 90.5638 25.0651 90.8828 24.8828C91.2083 24.7005 91.4753 24.4499 91.6836 24.1309C91.8919 23.8118 92.0449 23.4408 92.1426 23.0176C92.2467 22.5944 92.2988 22.1452 92.2988 21.6699L92.2988 21.4453C92.2988 20.9766 92.2467 20.5339 92.1426 20.1172C92.0449 19.694 91.8887 19.3197 91.6738 18.9941C91.4655 18.6686 91.1986 18.4147 90.873 18.2324C90.554 18.0436 90.1732 17.9492 89.7305 17.9492C89.2878 17.9492 88.9036 18.0436 88.5781 18.2324C88.2591 18.4147 87.9954 18.6686 87.7871 18.9941C87.5788 19.3197 87.4258 19.694 87.3281 20.1172C87.2305 20.5339 87.1816 20.9766 87.1816 21.4453ZM98.9883 18.3008L98.9883 30.8984L96.6348 30.8984L96.6348 16.2695L98.8027 16.2695L98.9883 18.3008ZM105.873 21.4551L105.873 21.6602C105.873 22.4284 105.782 23.1413 105.6 23.7988C105.424 24.4499 105.16 25.0195 104.809 25.5078C104.464 25.9896 104.037 26.3639 103.529 26.6309C103.021 26.8978 102.436 27.0312 101.771 27.0312C101.114 27.0312 100.538 26.9108 100.043 26.6699C99.5547 26.4225 99.1413 26.0742 98.8027 25.625C98.4642 25.1758 98.1908 24.6484 97.9824 24.043C97.7806 23.431 97.6374 22.7604 97.5527 22.0312L97.5527 21.2402C97.6374 20.4655 97.7806 19.7624 97.9824 19.1309C98.1908 18.4993 98.4642 17.9557 98.8027 17.5C99.1413 17.0443 99.5547 16.6927 100.043 16.4453C100.531 16.1979 101.101 16.0742 101.752 16.0742C102.416 16.0742 103.005 16.2044 103.52 16.4648C104.034 16.7188 104.467 17.0833 104.818 17.5586C105.17 18.0273 105.434 18.5938 105.609 19.2578C105.785 19.9154 105.873 20.6478 105.873 21.4551ZM103.52 21.6602L103.52 21.4551C103.52 20.9668 103.474 20.5143 103.383 20.0977C103.292 19.6745 103.148 19.3034 102.953 18.9844C102.758 18.6654 102.507 18.418 102.201 18.2422C101.902 18.0599 101.54 17.9688 101.117 17.9688C100.701 17.9688 100.342 18.0404 100.043 18.1836C99.7435 18.3203 99.4928 18.5124 99.291 18.7598C99.0892 19.0072 98.9329 19.2969 98.8223 19.6289C98.7116 19.9544 98.6335 20.3092 98.5879 20.6934L98.5879 22.5879C98.666 23.0566 98.7995 23.4863 98.9883 23.877C99.1771 24.2676 99.444 24.5801 99.7891 24.8145C100.141 25.0423 100.59 25.1562 101.137 25.1562C101.56 25.1562 101.921 25.0651 102.221 24.8828C102.52 24.7005 102.764 24.4499 102.953 24.1309C103.148 23.8053 103.292 23.431 103.383 23.0078C103.474 22.5846 103.52 22.1354 103.52 21.6602ZM110.824 25.6836L113.695 16.2695L116.215 16.2695L111.977 28.4473C111.879 28.7077 111.752 28.9909 111.596 29.2969C111.439 29.6029 111.234 29.8926 110.98 30.166C110.733 30.446 110.424 30.6706 110.053 30.8398C109.682 31.0156 109.232 31.1035 108.705 31.1035C108.497 31.1035 108.295 31.084 108.1 31.0449C107.911 31.0124 107.732 30.9766 107.562 30.9375L107.553 29.1406C107.618 29.1471 107.696 29.1536 107.787 29.1602C107.885 29.1667 107.963 29.1699 108.021 29.1699C108.412 29.1699 108.738 29.1211 108.998 29.0234C109.258 28.9323 109.47 28.7826 109.633 28.5742C109.802 28.3659 109.945 28.0859 110.062 27.7344L110.824 25.6836ZM109.203 16.2695L111.713 24.1797L112.133 26.6602L110.502 27.0801L106.664 16.2695L109.203 16.2695ZM119.926 18.2812L119.926 26.8359L117.572 26.8359L117.572 16.2695L119.818 16.2695L119.926 18.2812ZM123.158 16.2012L123.139 18.3887C122.995 18.3626 122.839 18.3431 122.67 18.3301C122.507 18.3171 122.344 18.3105 122.182 18.3105C121.778 18.3105 121.423 18.3691 121.117 18.4863C120.811 18.597 120.554 18.7598 120.346 18.9746C120.144 19.1829 119.988 19.4368 119.877 19.7363C119.766 20.0358 119.701 20.3711 119.682 20.7422L119.145 20.7812C119.145 20.1172 119.21 19.502 119.34 18.9355C119.47 18.3691 119.665 17.8711 119.926 17.4414C120.193 17.0117 120.525 16.6764 120.922 16.4355C121.326 16.1947 121.791 16.0742 122.318 16.0742C122.462 16.0742 122.615 16.0872 122.777 16.1133C122.947 16.1393 123.074 16.1686 123.158 16.2012ZM127.152 16.2695L127.152 26.8359L124.789 26.8359L124.789 16.2695L127.152 16.2695ZM124.633 13.4961C124.633 13.138 124.75 12.8418 124.984 12.6074C125.225 12.3665 125.557 12.2461 125.98 12.2461C126.397 12.2461 126.726 12.3665 126.967 12.6074C127.208 12.8418 127.328 13.138 127.328 13.4961C127.328 13.8477 127.208 14.1406 126.967 14.375C126.726 14.6094 126.397 14.7266 125.98 14.7266C125.557 14.7266 125.225 14.6094 124.984 14.375C124.75 14.1406 124.633 13.8477 124.633 13.4961ZM136.498 16.2695L138.637 16.2695L138.637 26.543C138.637 27.4935 138.435 28.3008 138.031 28.9648C137.628 29.6289 137.064 30.1335 136.342 30.4785C135.619 30.8301 134.783 31.0059 133.832 31.0059C133.428 31.0059 132.979 30.9473 132.484 30.8301C131.996 30.7129 131.521 30.5241 131.059 30.2637C130.603 30.0098 130.222 29.6745 129.916 29.2578L131.02 27.8711C131.397 28.3203 131.814 28.6491 132.27 28.8574C132.725 29.0658 133.204 29.1699 133.705 29.1699C134.245 29.1699 134.704 29.069 135.082 28.8672C135.466 28.6719 135.762 28.3822 135.971 27.998C136.179 27.6139 136.283 27.1452 136.283 26.5918L136.283 18.6621L136.498 16.2695ZM129.32 21.6699L129.32 21.4648C129.32 20.6641 129.418 19.9349 129.613 19.2773C129.809 18.6133 130.089 18.0436 130.453 17.5684C130.818 17.0866 131.26 16.7188 131.781 16.4648C132.302 16.2044 132.891 16.0742 133.549 16.0742C134.232 16.0742 134.815 16.1979 135.297 16.4453C135.785 16.6927 136.192 17.0475 136.518 17.5098C136.843 17.9655 137.097 18.5124 137.279 19.1504C137.468 19.7819 137.608 20.485 137.699 21.2598L137.699 21.9141C137.615 22.6693 137.471 23.3594 137.27 23.9844C137.068 24.6094 136.801 25.1497 136.469 25.6055C136.137 26.0612 135.727 26.4128 135.238 26.6602C134.757 26.9076 134.187 27.0312 133.529 27.0312C132.885 27.0312 132.302 26.8978 131.781 26.6309C131.267 26.3639 130.824 25.9896 130.453 25.5078C130.089 25.026 129.809 24.4596 129.613 23.8086C129.418 23.151 129.32 22.4382 129.32 21.6699ZM131.674 21.4648L131.674 21.6699C131.674 22.1517 131.719 22.6009 131.811 23.0176C131.908 23.4342 132.055 23.8021 132.25 24.1211C132.452 24.4336 132.706 24.681 133.012 24.8633C133.324 25.0391 133.692 25.127 134.115 25.127C134.669 25.127 135.121 25.0098 135.473 24.7754C135.831 24.541 136.104 24.2253 136.293 23.8281C136.488 23.4245 136.625 22.9753 136.703 22.4805L136.703 20.7129C136.664 20.3288 136.583 19.9707 136.459 19.6387C136.342 19.3066 136.182 19.0169 135.98 18.7695C135.779 18.5156 135.525 18.3203 135.219 18.1836C134.913 18.0404 134.551 17.9688 134.135 17.9688C133.712 17.9688 133.344 18.0599 133.031 18.2422C132.719 18.4245 132.462 18.6751 132.26 18.9941C132.064 19.3132 131.918 19.6842 131.82 20.1074C131.723 20.5306 131.674 20.9831 131.674 21.4648ZM143.402 11.8359L143.402 26.8359L141.059 26.8359L141.059 11.8359L143.402 11.8359ZM142.992 21.1621L142.23 21.1523C142.237 20.4232 142.338 19.7493 142.533 19.1309C142.735 18.5124 143.015 17.9753 143.373 17.5195C143.738 17.0573 144.174 16.7025 144.682 16.4551C145.189 16.2012 145.753 16.0742 146.371 16.0742C146.892 16.0742 147.361 16.1458 147.777 16.2891C148.201 16.4323 148.565 16.6634 148.871 16.9824C149.177 17.2949 149.408 17.7051 149.564 18.2129C149.727 18.7142 149.809 19.3262 149.809 20.0488L149.809 26.8359L147.445 26.8359L147.445 20.0293C147.445 19.5215 147.37 19.1178 147.221 18.8184C147.077 18.5189 146.866 18.304 146.586 18.1738C146.306 18.0371 145.964 17.9688 145.561 17.9688C145.137 17.9688 144.763 18.0534 144.438 18.2227C144.118 18.3919 143.852 18.623 143.637 18.916C143.422 19.209 143.259 19.5475 143.148 19.9316C143.044 20.3158 142.992 20.7259 142.992 21.1621ZM157.035 16.2695L157.035 17.9883L151.078 17.9883L151.078 16.2695L157.035 16.2695ZM152.797 13.6816L155.15 13.6816L155.15 23.916C155.15 24.2415 155.196 24.4922 155.287 24.668C155.385 24.8372 155.518 24.9512 155.688 25.0098C155.857 25.0684 156.055 25.0977 156.283 25.0977C156.446 25.0977 156.602 25.0879 156.752 25.0684C156.902 25.0488 157.022 25.0293 157.113 25.0098L157.123 26.8066C156.928 26.8652 156.7 26.9173 156.439 26.9629C156.186 27.0085 155.893 27.0312 155.561 27.0312C155.02 27.0312 154.542 26.9368 154.125 26.748C153.708 26.5527 153.383 26.237 153.148 25.8008C152.914 25.3646 152.797 24.7852 152.797 24.0625L152.797 13.6816ZM172.084 21.0059L173.549 21.0059C173.549 22.028 173.256 22.7962 172.67 23.3105C172.09 23.8184 171.299 24.0723 170.297 24.0723C169.6 24.0723 168.998 23.9128 168.49 23.5938C167.989 23.2747 167.598 22.832 167.318 22.2656C167.045 21.6992 166.908 21.0417 166.908 20.293L166.908 19.1504C166.908 18.4017 167.045 17.7441 167.318 17.1777C167.598 16.6113 167.989 16.1686 168.49 15.8496C168.998 15.5306 169.6 15.3711 170.297 15.3711C171.299 15.3711 172.094 15.6283 172.68 16.1426C173.266 16.6504 173.559 17.4154 173.559 18.4375L172.094 18.4375C172.094 17.7995 171.941 17.3438 171.635 17.0703C171.335 16.7904 170.889 16.6504 170.297 16.6504C169.874 16.6504 169.516 16.7578 169.223 16.9727C168.936 17.181 168.718 17.474 168.568 17.8516C168.425 18.2292 168.354 18.6589 168.354 19.1406L168.354 20.293C168.354 20.7812 168.425 21.2142 168.568 21.5918C168.718 21.9694 168.936 22.2656 169.223 22.4805C169.516 22.6888 169.874 22.793 170.297 22.793C170.889 22.793 171.335 22.6562 171.635 22.3828C171.934 22.1094 172.084 21.6504 172.084 21.0059ZM164.643 19.7168C164.643 20.5827 164.792 21.39 165.092 22.1387C165.391 22.8809 165.805 23.5319 166.332 24.0918C166.866 24.6452 167.481 25.0781 168.178 25.3906C168.881 25.6966 169.633 25.8496 170.434 25.8496C171.228 25.8496 171.973 25.6966 172.67 25.3906C173.367 25.0781 173.979 24.6452 174.506 24.0918C175.04 23.5319 175.456 22.8809 175.756 22.1387C176.055 21.39 176.205 20.5827 176.205 19.7168C176.205 18.8509 176.055 18.0469 175.756 17.3047C175.456 16.5625 175.04 15.9147 174.506 15.3613C173.979 14.8079 173.367 14.3783 172.67 14.0723C171.973 13.7598 171.228 13.6035 170.434 13.6035C169.633 13.6035 168.881 13.7598 168.178 14.0723C167.481 14.3783 166.866 14.8079 166.332 15.3613C165.805 15.9147 165.391 16.5625 165.092 17.3047C164.792 18.0469 164.643 18.8509 164.643 19.7168ZM163.5 19.7168C163.5 18.6816 163.679 17.7214 164.037 16.8359C164.395 15.9505 164.893 15.179 165.531 14.5215C166.169 13.8574 166.905 13.3431 167.738 12.9785C168.578 12.6074 169.477 12.4219 170.434 12.4219C171.391 12.4219 172.286 12.6074 173.119 12.9785C173.959 13.3431 174.695 13.8574 175.326 14.5215C175.964 15.179 176.462 15.9505 176.82 16.8359C177.178 17.7214 177.357 18.6816 177.357 19.7168C177.357 20.752 177.178 21.7122 176.82 22.5977C176.462 23.4831 175.964 24.2611 175.326 24.9316C174.695 25.5957 173.959 26.1133 173.119 26.4844C172.286 26.8555 171.391 27.041 170.434 27.041C169.477 27.041 168.578 26.8555 167.738 26.4844C166.905 26.1133 166.169 25.5957 165.531 24.9316C164.893 24.2611 164.395 23.4831 164.037 22.5977C163.679 21.7122 163.5 20.752 163.5 19.7168ZM193.93 24.9609L193.93 26.8359L184.398 26.8359L184.398 25.2246L189.027 20.1758C189.535 19.6029 189.936 19.1081 190.229 18.6914C190.521 18.2747 190.727 17.9004 190.844 17.5684C190.967 17.2298 191.029 16.901 191.029 16.582C191.029 16.1328 190.945 15.7389 190.775 15.4004C190.613 15.0553 190.372 14.7852 190.053 14.5898C189.734 14.388 189.346 14.2871 188.891 14.2871C188.363 14.2871 187.921 14.401 187.562 14.6289C187.204 14.8568 186.934 15.1725 186.752 15.5762C186.57 15.9733 186.479 16.429 186.479 16.9434L184.125 16.9434C184.125 16.1165 184.314 15.3613 184.691 14.6777C185.069 13.9876 185.616 13.4408 186.332 13.0371C187.048 12.627 187.911 12.4219 188.92 12.4219C189.87 12.4219 190.678 12.5814 191.342 12.9004C192.006 13.2194 192.51 13.6719 192.855 14.2578C193.207 14.8438 193.383 15.5371 193.383 16.3379C193.383 16.7806 193.311 17.2201 193.168 17.6562C193.025 18.0924 192.82 18.5286 192.553 18.9648C192.292 19.3945 191.983 19.8275 191.625 20.2637C191.267 20.6934 190.873 21.1296 190.443 21.5723L187.367 24.9609L193.93 24.9609ZM205.033 18.5352L205.033 20.8594C205.033 21.9727 204.923 22.9232 204.701 23.7109C204.486 24.4922 204.174 25.127 203.764 25.6152C203.354 26.1035 202.862 26.4616 202.289 26.6895C201.723 26.9173 201.088 27.0312 200.385 27.0312C199.825 27.0312 199.304 26.9596 198.822 26.8164C198.347 26.6732 197.917 26.4486 197.533 26.1426C197.149 25.8366 196.82 25.4427 196.547 24.9609C196.28 24.4727 196.072 23.89 195.922 23.2129C195.779 22.5358 195.707 21.7513 195.707 20.8594L195.707 18.5352C195.707 17.4154 195.818 16.4714 196.039 15.7031C196.26 14.9284 196.576 14.3001 196.986 13.8184C197.396 13.3301 197.885 12.9753 198.451 12.7539C199.024 12.5326 199.662 12.4219 200.365 12.4219C200.932 12.4219 201.452 12.4935 201.928 12.6367C202.41 12.7734 202.839 12.9915 203.217 13.291C203.601 13.5905 203.926 13.9811 204.193 14.4629C204.467 14.9382 204.675 15.5143 204.818 16.1914C204.962 16.862 205.033 17.6432 205.033 18.5352ZM202.68 21.1914L202.68 18.1836C202.68 17.6172 202.647 17.1191 202.582 16.6895C202.517 16.2533 202.419 15.8854 202.289 15.5859C202.165 15.2799 202.009 15.0326 201.82 14.8438C201.632 14.6484 201.417 14.5085 201.176 14.4238C200.935 14.3327 200.665 14.2871 200.365 14.2871C200.001 14.2871 199.675 14.3587 199.389 14.502C199.102 14.6387 198.861 14.86 198.666 15.166C198.471 15.472 198.321 15.8757 198.217 16.377C198.119 16.8717 198.07 17.474 198.07 18.1836L198.07 21.1914C198.07 21.7643 198.103 22.2689 198.168 22.7051C198.233 23.1413 198.331 23.5156 198.461 23.8281C198.591 24.1341 198.747 24.388 198.93 24.5898C199.118 24.7852 199.333 24.9284 199.574 25.0195C199.822 25.1107 200.092 25.1562 200.385 25.1562C200.756 25.1562 201.085 25.0846 201.371 24.9414C201.658 24.7982 201.898 24.5703 202.094 24.2578C202.289 23.9388 202.436 23.5254 202.533 23.0176C202.631 22.5098 202.68 21.901 202.68 21.1914ZM216.664 24.9609L216.664 26.8359L207.133 26.8359L207.133 25.2246L211.762 20.1758C212.27 19.6029 212.67 19.1081 212.963 18.6914C213.256 18.2747 213.461 17.9004 213.578 17.5684C213.702 17.2298 213.764 16.901 213.764 16.582C213.764 16.1328 213.679 15.7389 213.51 15.4004C213.347 15.0553 213.106 14.7852 212.787 14.5898C212.468 14.388 212.081 14.2871 211.625 14.2871C211.098 14.2871 210.655 14.401 210.297 14.6289C209.939 14.8568 209.669 15.1725 209.486 15.5762C209.304 15.9733 209.213 16.429 209.213 16.9434L206.859 16.9434C206.859 16.1165 207.048 15.3613 207.426 14.6777C207.803 13.9876 208.35 13.4408 209.066 13.0371C209.783 12.627 210.645 12.4219 211.654 12.4219C212.605 12.4219 213.412 12.5814 214.076 12.9004C214.74 13.2194 215.245 13.6719 215.59 14.2578C215.941 14.8438 216.117 15.5371 216.117 16.3379C216.117 16.7806 216.046 17.2201 215.902 17.6562C215.759 18.0924 215.554 18.5286 215.287 18.9648C215.027 19.3945 214.717 19.8275 214.359 20.2637C214.001 20.6934 213.607 21.1296 213.178 21.5723L210.102 24.9609L216.664 24.9609ZM220.971 20.2246L219.096 19.7656L219.867 12.6172L227.533 12.6172L227.533 14.6094L221.82 14.6094L221.43 18.0957C221.651 17.9655 221.957 17.8385 222.348 17.7148C222.738 17.5846 223.184 17.5195 223.686 17.5195C224.356 17.5195 224.955 17.6302 225.482 17.8516C226.016 18.0664 226.469 18.3822 226.84 18.7988C227.211 19.209 227.494 19.7103 227.689 20.3027C227.885 20.8887 227.982 21.5495 227.982 22.2852C227.982 22.9427 227.885 23.5579 227.689 24.1309C227.501 24.7038 227.214 25.2083 226.83 25.6445C226.446 26.0807 225.961 26.4225 225.375 26.6699C224.796 26.9108 224.109 27.0312 223.314 27.0312C222.722 27.0312 222.152 26.9466 221.605 26.7773C221.065 26.6016 220.58 26.3444 220.15 26.0059C219.721 25.6608 219.376 25.2376 219.115 24.7363C218.855 24.2285 218.705 23.6458 218.666 22.9883L220.971 22.9883C221.029 23.4505 221.156 23.8444 221.352 24.1699C221.553 24.4889 221.82 24.7331 222.152 24.9023C222.484 25.0716 222.868 25.1562 223.305 25.1562C223.702 25.1562 224.044 25.0879 224.33 24.9512C224.617 24.8079 224.854 24.6061 225.043 24.3457C225.238 24.0788 225.382 23.7663 225.473 23.4082C225.57 23.0501 225.619 22.653 225.619 22.2168C225.619 21.8001 225.564 21.4193 225.453 21.0742C225.349 20.7292 225.189 20.4297 224.975 20.1758C224.766 19.9219 224.503 19.7266 224.184 19.5898C223.865 19.4466 223.497 19.375 223.08 19.375C222.52 19.375 222.09 19.4564 221.791 19.6191C221.498 19.7819 221.225 19.9837 220.971 20.2246ZM240.199 12.6172L245.229 12.6172C246.309 12.6172 247.23 12.7799 247.992 13.1055C248.754 13.431 249.337 13.9128 249.74 14.5508C250.15 15.1823 250.355 15.9635 250.355 16.8945C250.355 17.6042 250.225 18.2292 249.965 18.7695C249.704 19.3099 249.337 19.7656 248.861 20.1367C248.386 20.5013 247.82 20.7845 247.162 20.9863L246.42 21.3477L241.898 21.3477L241.879 19.4043L245.268 19.4043C245.854 19.4043 246.342 19.3001 246.732 19.0918C247.123 18.8835 247.416 18.6003 247.611 18.2422C247.813 17.8776 247.914 17.4674 247.914 17.0117C247.914 16.5169 247.816 16.0872 247.621 15.7227C247.432 15.3516 247.139 15.0684 246.742 14.873C246.345 14.6712 245.84 14.5703 245.229 14.5703L242.65 14.5703L242.65 26.8359L240.199 26.8359L240.199 12.6172ZM248.314 26.8359L244.975 20.4492L247.543 20.4395L250.932 26.709L250.932 26.8359L248.314 26.8359ZM255.082 16.2695L255.082 26.8359L252.719 26.8359L252.719 16.2695L255.082 16.2695ZM252.562 13.4961C252.562 13.138 252.68 12.8418 252.914 12.6074C253.155 12.3665 253.487 12.2461 253.91 12.2461C254.327 12.2461 254.656 12.3665 254.896 12.6074C255.137 12.8418 255.258 13.138 255.258 13.4961C255.258 13.8477 255.137 14.1406 254.896 14.375C254.656 14.6094 254.327 14.7266 253.91 14.7266C253.487 14.7266 253.155 14.6094 252.914 14.375C252.68 14.1406 252.562 13.8477 252.562 13.4961ZM260.023 18.3008L260.023 30.8984L257.67 30.8984L257.67 16.2695L259.838 16.2695L260.023 18.3008ZM266.908 21.4551L266.908 21.6602C266.908 22.4284 266.817 23.1413 266.635 23.7988C266.459 24.4499 266.195 25.0195 265.844 25.5078C265.499 25.9896 265.072 26.3639 264.564 26.6309C264.057 26.8978 263.471 27.0312 262.807 27.0312C262.149 27.0312 261.573 26.9108 261.078 26.6699C260.59 26.4225 260.176 26.0742 259.838 25.625C259.499 25.1758 259.226 24.6484 259.018 24.043C258.816 23.431 258.673 22.7604 258.588 22.0312L258.588 21.2402C258.673 20.4655 258.816 19.7624 259.018 19.1309C259.226 18.4993 259.499 17.9557 259.838 17.5C260.176 17.0443 260.59 16.6927 261.078 16.4453C261.566 16.1979 262.136 16.0742 262.787 16.0742C263.451 16.0742 264.04 16.2044 264.555 16.4648C265.069 16.7188 265.502 17.0833 265.854 17.5586C266.205 18.0273 266.469 18.5938 266.645 19.2578C266.82 19.9154 266.908 20.6478 266.908 21.4551ZM264.555 21.6602L264.555 21.4551C264.555 20.9668 264.509 20.5143 264.418 20.0977C264.327 19.6745 264.184 19.3034 263.988 18.9844C263.793 18.6654 263.542 18.418 263.236 18.2422C262.937 18.0599 262.576 17.9688 262.152 17.9688C261.736 17.9688 261.378 18.0404 261.078 18.1836C260.779 18.3203 260.528 18.5124 260.326 18.7598C260.124 19.0072 259.968 19.2969 259.857 19.6289C259.747 19.9544 259.669 20.3092 259.623 20.6934L259.623 22.5879C259.701 23.0566 259.835 23.4863 260.023 23.877C260.212 24.2676 260.479 24.5801 260.824 24.8145C261.176 25.0423 261.625 25.1562 262.172 25.1562C262.595 25.1562 262.956 25.0651 263.256 24.8828C263.555 24.7005 263.799 24.4499 263.988 24.1309C264.184 23.8053 264.327 23.431 264.418 23.0078C264.509 22.5846 264.555 22.1354 264.555 21.6602ZM271.273 18.3008L271.273 30.8984L268.92 30.8984L268.92 16.2695L271.088 16.2695L271.273 18.3008ZM278.158 21.4551L278.158 21.6602C278.158 22.4284 278.067 23.1413 277.885 23.7988C277.709 24.4499 277.445 25.0195 277.094 25.5078C276.749 25.9896 276.322 26.3639 275.814 26.6309C275.307 26.8978 274.721 27.0312 274.057 27.0312C273.399 27.0312 272.823 26.9108 272.328 26.6699C271.84 26.4225 271.426 26.0742 271.088 25.625C270.749 25.1758 270.476 24.6484 270.268 24.043C270.066 23.431 269.923 22.7604 269.838 22.0312L269.838 21.2402C269.923 20.4655 270.066 19.7624 270.268 19.1309C270.476 18.4993 270.749 17.9557 271.088 17.5C271.426 17.0443 271.84 16.6927 272.328 16.4453C272.816 16.1979 273.386 16.0742 274.037 16.0742C274.701 16.0742 275.29 16.2044 275.805 16.4648C276.319 16.7188 276.752 17.0833 277.104 17.5586C277.455 18.0273 277.719 18.5938 277.895 19.2578C278.07 19.9154 278.158 20.6478 278.158 21.4551ZM275.805 21.6602L275.805 21.4551C275.805 20.9668 275.759 20.5143 275.668 20.0977C275.577 19.6745 275.434 19.3034 275.238 18.9844C275.043 18.6654 274.792 18.418 274.486 18.2422C274.187 18.0599 273.826 17.9688 273.402 17.9688C272.986 17.9688 272.628 18.0404 272.328 18.1836C272.029 18.3203 271.778 18.5124 271.576 18.7598C271.374 19.0072 271.218 19.2969 271.107 19.6289C270.997 19.9544 270.919 20.3092 270.873 20.6934L270.873 22.5879C270.951 23.0566 271.085 23.4863 271.273 23.877C271.462 24.2676 271.729 24.5801 272.074 24.8145C272.426 25.0423 272.875 25.1562 273.422 25.1562C273.845 25.1562 274.206 25.0651 274.506 24.8828C274.805 24.7005 275.049 24.4499 275.238 24.1309C275.434 23.8053 275.577 23.431 275.668 23.0078C275.759 22.5846 275.805 22.1354 275.805 21.6602ZM284.818 27.0312C284.037 27.0312 283.331 26.9043 282.699 26.6504C282.074 26.39 281.54 26.0286 281.098 25.5664C280.661 25.1042 280.326 24.5605 280.092 23.9355C279.857 23.3105 279.74 22.6367 279.74 21.9141L279.74 21.5234C279.74 20.6966 279.861 19.9479 280.102 19.2773C280.342 18.6068 280.678 18.0339 281.107 17.5586C281.537 17.0768 282.045 16.709 282.631 16.4551C283.217 16.2012 283.852 16.0742 284.535 16.0742C285.29 16.0742 285.951 16.2012 286.518 16.4551C287.084 16.709 287.553 17.0671 287.924 17.5293C288.301 17.985 288.581 18.5286 288.764 19.1602C288.952 19.7917 289.047 20.4883 289.047 21.25L289.047 22.2559L280.883 22.2559L280.883 20.5664L286.723 20.5664L286.723 20.3809C286.71 19.9577 286.625 19.5605 286.469 19.1895C286.319 18.8184 286.088 18.5189 285.775 18.291C285.463 18.0632 285.046 17.9492 284.525 17.9492C284.135 17.9492 283.786 18.0339 283.48 18.2031C283.181 18.3659 282.93 18.6035 282.729 18.916C282.527 19.2285 282.37 19.6061 282.26 20.0488C282.156 20.485 282.104 20.9766 282.104 21.5234L282.104 21.9141C282.104 22.3763 282.165 22.806 282.289 23.2031C282.419 23.5938 282.608 23.9355 282.855 24.2285C283.103 24.5215 283.402 24.7526 283.754 24.9219C284.105 25.0846 284.506 25.166 284.955 25.166C285.521 25.166 286.026 25.0521 286.469 24.8242C286.911 24.5964 287.296 24.2741 287.621 23.8574L288.861 25.0586C288.633 25.3906 288.337 25.7096 287.973 26.0156C287.608 26.3151 287.162 26.5592 286.635 26.748C286.114 26.9368 285.508 27.0312 284.818 27.0312ZM293.246 18.2812L293.246 26.8359L290.893 26.8359L290.893 16.2695L293.139 16.2695L293.246 18.2812ZM296.479 16.2012L296.459 18.3887C296.316 18.3626 296.159 18.3431 295.99 18.3301C295.827 18.3171 295.665 18.3105 295.502 18.3105C295.098 18.3105 294.743 18.3691 294.438 18.4863C294.132 18.597 293.874 18.7598 293.666 18.9746C293.464 19.1829 293.308 19.4368 293.197 19.7363C293.087 20.0358 293.021 20.3711 293.002 20.7422L292.465 20.7812C292.465 20.1172 292.53 19.502 292.66 18.9355C292.79 18.3691 292.986 17.8711 293.246 17.4414C293.513 17.0117 293.845 16.6764 294.242 16.4355C294.646 16.1947 295.111 16.0742 295.639 16.0742C295.782 16.0742 295.935 16.0872 296.098 16.1133C296.267 16.1393 296.394 16.1686 296.479 16.2012ZM311.566 22.207L314.008 22.207C313.93 23.138 313.669 23.9681 313.227 24.6973C312.784 25.4199 312.162 25.9896 311.361 26.4062C310.561 26.8229 309.587 27.0312 308.441 27.0312C307.562 27.0312 306.771 26.875 306.068 26.5625C305.365 26.2435 304.763 25.7943 304.262 25.2148C303.76 24.6289 303.376 23.9225 303.109 23.0957C302.849 22.2689 302.719 21.3444 302.719 20.3223L302.719 19.1406C302.719 18.1185 302.852 17.194 303.119 16.3672C303.393 15.5404 303.783 14.834 304.291 14.248C304.799 13.6556 305.408 13.2031 306.117 12.8906C306.833 12.5781 307.637 12.4219 308.529 12.4219C309.662 12.4219 310.619 12.6302 311.4 13.0469C312.182 13.4635 312.787 14.0397 313.217 14.7754C313.653 15.5111 313.92 16.3542 314.018 17.3047L311.576 17.3047C311.511 16.6927 311.368 16.1686 311.146 15.7324C310.932 15.2962 310.613 14.9642 310.189 14.7363C309.766 14.502 309.213 14.3848 308.529 14.3848C307.969 14.3848 307.481 14.4889 307.064 14.6973C306.648 14.9056 306.299 15.2116 306.02 15.6152C305.74 16.0189 305.528 16.5169 305.385 17.1094C305.248 17.6953 305.18 18.3659 305.18 19.1211L305.18 20.3223C305.18 21.0384 305.242 21.6895 305.365 22.2754C305.495 22.8548 305.691 23.3529 305.951 23.7695C306.218 24.1862 306.557 24.5085 306.967 24.7363C307.377 24.9642 307.868 25.0781 308.441 25.0781C309.138 25.0781 309.701 24.9674 310.131 24.7461C310.567 24.5247 310.896 24.2025 311.117 23.7793C311.345 23.3496 311.495 22.8255 311.566 22.207ZM321.957 24.7168L321.957 19.6777C321.957 19.3001 321.889 18.9746 321.752 18.7012C321.615 18.4277 321.407 18.2161 321.127 18.0664C320.854 17.9167 320.508 17.8418 320.092 17.8418C319.708 17.8418 319.376 17.9069 319.096 18.0371C318.816 18.1673 318.598 18.3431 318.441 18.5645C318.285 18.7858 318.207 19.0365 318.207 19.3164L315.863 19.3164C315.863 18.8997 315.964 18.4961 316.166 18.1055C316.368 17.7148 316.661 17.3665 317.045 17.0605C317.429 16.7546 317.888 16.5137 318.422 16.3379C318.956 16.1621 319.555 16.0742 320.219 16.0742C321.013 16.0742 321.716 16.2077 322.328 16.4746C322.947 16.7415 323.432 17.1452 323.783 17.6855C324.141 18.2194 324.32 18.89 324.32 19.6973L324.32 24.3945C324.32 24.8763 324.353 25.3092 324.418 25.6934C324.49 26.071 324.591 26.3997 324.721 26.6797L324.721 26.8359L322.309 26.8359C322.198 26.582 322.11 26.2598 322.045 25.8691C321.986 25.472 321.957 25.0879 321.957 24.7168ZM322.299 20.4102L322.318 21.8652L320.629 21.8652C320.193 21.8652 319.809 21.9076 319.477 21.9922C319.145 22.0703 318.868 22.1875 318.646 22.3438C318.425 22.5 318.259 22.6888 318.148 22.9102C318.038 23.1315 317.982 23.3822 317.982 23.6621C317.982 23.9421 318.048 24.1992 318.178 24.4336C318.308 24.6615 318.497 24.8405 318.744 24.9707C318.998 25.1009 319.304 25.166 319.662 25.166C320.144 25.166 320.564 25.0684 320.922 24.873C321.286 24.6712 321.573 24.4271 321.781 24.1406C321.99 23.8477 322.1 23.571 322.113 23.3105L322.875 24.3555C322.797 24.6224 322.663 24.9089 322.475 25.2148C322.286 25.5208 322.038 25.8138 321.732 26.0938C321.433 26.3672 321.072 26.5918 320.648 26.7676C320.232 26.9434 319.75 27.0312 319.203 27.0312C318.513 27.0312 317.898 26.8945 317.357 26.6211C316.817 26.3411 316.394 25.9668 316.088 25.498C315.782 25.0228 315.629 24.4857 315.629 23.8867C315.629 23.3268 315.733 22.832 315.941 22.4023C316.156 21.9661 316.469 21.6016 316.879 21.3086C317.296 21.0156 317.803 20.7943 318.402 20.6445C319.001 20.4883 319.685 20.4102 320.453 20.4102L322.299 20.4102ZM332.709 23.9746C332.709 23.7402 332.65 23.5286 332.533 23.3398C332.416 23.1445 332.191 22.9688 331.859 22.8125C331.534 22.6562 331.052 22.513 330.414 22.3828C329.854 22.2591 329.34 22.1126 328.871 21.9434C328.409 21.7676 328.012 21.556 327.68 21.3086C327.348 21.0612 327.09 20.7682 326.908 20.4297C326.726 20.0911 326.635 19.7005 326.635 19.2578C326.635 18.8281 326.729 18.4212 326.918 18.0371C327.107 17.653 327.377 17.3145 327.729 17.0215C328.08 16.7285 328.507 16.4974 329.008 16.3281C329.516 16.1589 330.082 16.0742 330.707 16.0742C331.592 16.0742 332.351 16.224 332.982 16.5234C333.62 16.8164 334.109 17.2168 334.447 17.7246C334.786 18.2259 334.955 18.7923 334.955 19.4238L332.602 19.4238C332.602 19.1439 332.53 18.8835 332.387 18.6426C332.25 18.3952 332.042 18.1966 331.762 18.0469C331.482 17.8906 331.13 17.8125 330.707 17.8125C330.303 17.8125 329.968 17.8776 329.701 18.0078C329.441 18.1315 329.245 18.2943 329.115 18.4961C328.992 18.6979 328.93 18.9193 328.93 19.1602C328.93 19.3359 328.962 19.4954 329.027 19.6387C329.099 19.7754 329.216 19.9023 329.379 20.0195C329.542 20.1302 329.763 20.2344 330.043 20.332C330.329 20.4297 330.688 20.5241 331.117 20.6152C331.924 20.7845 332.618 21.0026 333.197 21.2695C333.783 21.5299 334.232 21.8685 334.545 22.2852C334.857 22.6953 335.014 23.2161 335.014 23.8477C335.014 24.3164 334.913 24.7461 334.711 25.1367C334.516 25.5208 334.229 25.8561 333.852 26.1426C333.474 26.4225 333.021 26.6406 332.494 26.7969C331.973 26.9531 331.387 27.0312 330.736 27.0312C329.779 27.0312 328.969 26.862 328.305 26.5234C327.641 26.1784 327.136 25.7389 326.791 25.2051C326.452 24.6647 326.283 24.1048 326.283 23.5254L328.559 23.5254C328.585 23.9616 328.705 24.3099 328.92 24.5703C329.141 24.8242 329.415 25.0098 329.74 25.127C330.072 25.2376 330.414 25.293 330.766 25.293C331.189 25.293 331.544 25.2376 331.83 25.127C332.117 25.0098 332.335 24.8535 332.484 24.6582C332.634 24.4564 332.709 24.2285 332.709 23.9746ZM339.594 16.2695L339.594 26.8359L337.23 26.8359L337.23 16.2695L339.594 16.2695ZM337.074 13.4961C337.074 13.138 337.191 12.8418 337.426 12.6074C337.667 12.3665 337.999 12.2461 338.422 12.2461C338.839 12.2461 339.167 12.3665 339.408 12.6074C339.649 12.8418 339.77 13.138 339.77 13.4961C339.77 13.8477 339.649 14.1406 339.408 14.375C339.167 14.6094 338.839 14.7266 338.422 14.7266C337.999 14.7266 337.667 14.6094 337.426 14.375C337.191 14.1406 337.074 13.8477 337.074 13.4961ZM344.506 18.5254L344.506 26.8359L342.152 26.8359L342.152 16.2695L344.369 16.2695L344.506 18.5254ZM344.086 21.1621L343.324 21.1523C343.331 20.4036 343.435 19.7168 343.637 19.0918C343.845 18.4668 344.132 17.9297 344.496 17.4805C344.867 17.0312 345.31 16.6862 345.824 16.4453C346.339 16.1979 346.911 16.0742 347.543 16.0742C348.051 16.0742 348.51 16.1458 348.92 16.2891C349.337 16.4258 349.691 16.6504 349.984 16.9629C350.284 17.2754 350.512 17.6823 350.668 18.1836C350.824 18.6784 350.902 19.2871 350.902 20.0098L350.902 26.8359L348.539 26.8359L348.539 20C348.539 19.4922 348.464 19.0918 348.314 18.7988C348.171 18.4993 347.96 18.2878 347.68 18.1641C347.406 18.0339 347.064 17.9688 346.654 17.9688C346.251 17.9688 345.889 18.0534 345.57 18.2227C345.251 18.3919 344.981 18.623 344.76 18.916C344.545 19.209 344.379 19.5475 344.262 19.9316C344.145 20.3158 344.086 20.7259 344.086 21.1621ZM352.855 21.6699L352.855 21.4453C352.855 20.6836 352.966 19.9772 353.188 19.3262C353.409 18.6686 353.728 18.099 354.145 17.6172C354.568 17.1289 355.082 16.7513 355.688 16.4844C356.299 16.2109 356.99 16.0742 357.758 16.0742C358.533 16.0742 359.223 16.2109 359.828 16.4844C360.44 16.7513 360.958 17.1289 361.381 17.6172C361.804 18.099 362.126 18.6686 362.348 19.3262C362.569 19.9772 362.68 20.6836 362.68 21.4453L362.68 21.6699C362.68 22.4316 362.569 23.138 362.348 23.7891C362.126 24.4401 361.804 25.0098 361.381 25.498C360.958 25.9798 360.443 26.3574 359.838 26.6309C359.232 26.8978 358.546 27.0312 357.777 27.0312C357.003 27.0312 356.309 26.8978 355.697 26.6309C355.092 26.3574 354.577 25.9798 354.154 25.498C353.731 25.0098 353.409 24.4401 353.188 23.7891C352.966 23.138 352.855 22.4316 352.855 21.6699ZM355.209 21.4453L355.209 21.6699C355.209 22.1452 355.258 22.5944 355.355 23.0176C355.453 23.4408 355.606 23.8118 355.814 24.1309C356.023 24.4499 356.29 24.7005 356.615 24.8828C356.941 25.0651 357.328 25.1562 357.777 25.1562C358.214 25.1562 358.591 25.0651 358.91 24.8828C359.236 24.7005 359.503 24.4499 359.711 24.1309C359.919 23.8118 360.072 23.4408 360.17 23.0176C360.274 22.5944 360.326 22.1452 360.326 21.6699L360.326 21.4453C360.326 20.9766 360.274 20.5339 360.17 20.1172C360.072 19.694 359.916 19.3197 359.701 18.9941C359.493 18.6686 359.226 18.4147 358.9 18.2324C358.581 18.0436 358.201 17.9492 357.758 17.9492C357.315 17.9492 356.931 18.0436 356.605 18.2324C356.286 18.4147 356.023 18.6686 355.814 18.9941C355.606 19.3197 355.453 19.694 355.355 20.1172C355.258 20.5339 355.209 20.9766 355.209 21.4453Z" fill="rgb(255,255,255)" fill-opacity="0.340000004" fill-rule="nonzero" />
</svg>
