<svg width="618" height="32" viewBox="0 0 618 32" fill="none" xmlns="http://www.w3.org/2000/svg">
<g style="mix-blend-mode:luminosity">
<path d="M34.2041 3.42188H19.6371V28.5774H34.2041V3.42188Z" fill="#FF5F00"/>
<path d="M20.5788 16C20.5788 10.8889 23.0759 6.35556 26.9142 3.42223C24.0933 1.28889 20.5325 0 16.648 0C7.44535 0 0 7.15556 0 16C0 24.8444 7.44535 32 16.648 32C20.5325 32 24.0933 30.7111 26.9142 28.5778C23.0759 25.6889 20.5788 21.1111 20.5788 16Z" fill="#EB001B"/>
<path d="M53.9999 16C53.9999 24.8444 46.5546 32 37.352 32C33.4674 32 29.9066 30.7111 27.0857 28.5778C30.9702 25.6445 33.4212 21.1111 33.4212 16C33.4212 10.8889 30.924 6.35556 27.0857 3.42223C29.9066 1.28889 33.4674 0 37.352 0C46.5546 0 53.9999 7.2 53.9999 16Z" fill="#F79E1B"/>
<path d="M132.529 0C125.713 0 119.621 3.63508 119.621 10.3497C119.621 18.0509 130.424 18.5827 130.424 22.4521C130.424 24.0813 128.61 25.5395 125.51 25.5395C121.112 25.5395 117.824 23.502 117.824 23.502L116.417 30.2788C116.417 30.2788 120.204 32 125.232 32C132.684 32 138.549 28.187 138.549 21.3567C138.549 13.2186 127.701 12.7025 127.701 9.11193C127.701 7.83564 129.19 6.43776 132.281 6.43776C135.768 6.43776 138.613 7.91968 138.613 7.91968L139.99 1.37514C139.99 1.37514 136.893 0 132.528 0H132.529ZM70.1653 0.4943L70 1.48191C70 1.48191 72.8675 2.02169 75.4506 3.09926C78.7765 4.33402 79.0129 5.05372 79.5731 7.28598L85.6762 31.4899H93.8578L106.462 0.4943H98.2993L90.2004 21.5683L86.8956 3.70428C86.5929 1.65986 85.0573 0.493311 83.1786 0.493311H70.1662L70.1653 0.4943ZM109.744 0.4943L103.342 31.4899H111.125L117.505 0.4943H109.744ZM153.157 0.4943C151.28 0.4943 150.285 1.52838 149.556 3.33455L138.152 31.4899H146.315L147.894 26.797H157.838L158.798 31.4899H166L159.717 0.4943H153.157ZM154.219 8.86873L156.638 20.4996H150.157L154.22 8.86873H154.219Z" fill="url(#paint0_linear_17379_2)"/>
<path d="M358.716 2.39924C356.434 0.799745 352.957 0 348.387 0H336.47L332.001 24.6953H316.404L317.396 19.0971H326.834L327.927 12.7959H318.489L319.481 7.19771H329.218L330.508 0H310.838L306.567 23.4982H299.315L303.687 0H293.358L289.189 23.3964H282.134L286.4 0H276.168L271.699 24.6953H256.006L256.998 19.0971H266.436L267.529 12.7959H258.091L259.083 7.19771H268.916L270.206 0H208.821L205.345 19.5963L198.391 0H187.759L182 32H192.233L195.709 11.9045L202.465 32H239.018L243.486 7.30468H249.245L244.676 32H340.731L343.514 16.4024L347.983 32H358.215L353.544 19.199L354.637 19.0003C356.823 18.5979 358.711 17.4008 360.103 15.6995C361.393 13.7994 362.092 11.5989 361.99 9.19962C361.99 6.1993 360.998 3.99873 358.711 2.39924H358.716ZM230.076 24.7004H214.479L215.471 19.1022H225.304L226.397 12.801H216.66L217.556 7.29959H233.153L230.071 24.6953L230.076 24.7004ZM350.371 14.0032C349.379 14.701 347.886 15.1035 345.801 15.1035H343.813L345.402 6.50493H346.889C348.58 6.50493 349.769 6.80548 350.665 7.30468C351.161 7.60522 351.56 8.10442 351.758 8.60363C352.056 9.10283 352.158 9.70392 352.056 10.305C352.056 11.0029 351.955 11.7058 351.657 12.3069C351.358 13.0048 350.963 13.5091 350.366 14.0083L350.371 14.0032Z" fill="url(#paint1_linear_17379_2)"/>
<path d="M454.337 3.13906L462.331 1.75132V31.6671H454.337V3.13906ZM466.006 3.13906V31.6518H474V1.75132L466.006 3.13906ZM442.978 31.6518H450.972V9.77564H442.978V31.6518ZM390.157 12.8686C389.138 12.802 386.803 12.6535 386.803 10.6052C386.803 8.12674 390.173 8.12674 391.427 8.12674C393.647 8.12674 396.524 8.77196 398.571 9.36598C398.571 9.36598 399.721 9.76028 400.686 10.1597L400.77 10.1751V3.40022L400.65 3.3695C398.23 2.54505 395.416 1.75132 390.183 1.75132C381.181 1.75132 378 6.87214 378 11.2504C378 13.7801 379.118 19.7254 389.432 20.4167C390.314 20.4679 392.634 20.5959 392.634 22.7313C392.634 24.4826 390.739 25.5222 387.538 25.5222C384.031 25.5222 380.646 24.6465 378.577 23.8221V30.812C381.659 31.6057 385.149 32 389.228 32C398.036 32 401.978 27.1608 401.978 22.3524C401.978 16.8987 397.574 13.3653 390.157 12.8686ZM438.469 9.46327C431.084 9.69371 427.341 12.9301 427.341 19.3567V31.662H435.404V21.6201C435.404 17.7692 435.913 16.1203 440.6 15.9718V9.56057C439.787 9.41207 438.469 9.46327 438.469 9.46327ZM416.796 9.76028C416.628 10.1904 415.342 13.7238 412.24 17.3749V1.75132L403.993 3.33877V31.6518H412.24V22.8952C414.628 26.3978 415.814 31.6518 415.814 31.6518H425.688C424.706 27.6883 420.439 20.386 420.439 20.386C424.265 15.6441 425.961 10.5899 426.228 9.74492H416.796V9.76028ZM446.957 7.68123C449.125 7.68123 450.904 5.96063 450.904 3.85086C450.904 1.74108 449.14 0 446.957 0C444.773 0 443.031 1.7206 443.031 3.85086C443.031 5.98112 444.794 7.68123 446.957 7.68123Z" fill="url(#paint2_linear_17379_2)"/>
<circle cx="506" cy="16" r="16" fill="#F7931A"/>
<path d="M513.014 13.9404C513.335 11.8108 511.709 10.6696 509.493 9.90539L510.211 7.02177L508.453 6.58363L507.755 9.39082C507.291 9.27365 506.818 9.16666 506.349 9.05967L507.052 6.23209L505.299 5.79395L504.581 8.67756C504.198 8.59095 503.821 8.50434 503.46 8.41264V8.40245L501.039 7.79617L500.57 9.67103C500.57 9.67103 501.875 9.97162 501.844 9.98691C502.558 10.1652 502.685 10.6339 502.665 11.0059L501.844 14.292C501.895 14.3021 501.956 14.3225 502.028 14.348C501.972 14.3327 501.905 14.3174 501.844 14.3021L500.698 18.9027C500.611 19.1167 500.392 19.4427 499.893 19.3205C499.908 19.3459 498.619 18.9995 498.619 18.9995L497.747 21.0068L500.03 21.5774C500.453 21.6844 500.871 21.7965 501.284 21.8984L500.555 24.8177L502.308 25.2558L503.026 22.3722C503.505 22.5047 503.969 22.6218 504.428 22.7339L503.709 25.6073L505.467 26.0455L506.196 23.1364C509.192 23.7019 511.439 23.4727 512.387 20.7674C513.151 18.5868 512.351 17.3284 510.772 16.5082C511.918 16.2432 512.784 15.4892 513.014 13.9302V13.9404ZM509.003 19.565C508.463 21.7455 504.789 20.5687 503.602 20.2732L504.565 16.4114C505.758 16.7069 509.574 17.2978 509.003 19.5701V19.565ZM509.549 13.9098C509.054 15.8917 505.997 14.8829 505.009 14.6384L505.885 11.1332C506.874 11.3778 510.068 11.8414 509.554 13.9098H509.549Z" fill="white"/>
<circle cx="554" cy="16" r="16" fill="#345D9D"/>
<path d="M552.722 23.0726L554.37 17.5828V17.5773L556.941 16.8597L557.479 15.044L554.947 15.7993L557.633 6.79056V6.64593C557.633 6.58698 557.617 6.53354 557.595 6.47967C557.581 6.44744 557.564 6.41733 557.543 6.39018C557.529 6.37237 557.513 6.35541 557.496 6.34056C557.452 6.30324 557.402 6.27101 557.347 6.24938C557.293 6.22817 557.238 6.22266 557.177 6.22266H553.761C553.629 6.22266 553.502 6.2604 553.398 6.33505C553.294 6.41012 553.217 6.51742 553.184 6.64042L549.998 17.3152L547.466 18.0701L546.889 19.8107L549.421 19.0558L547.158 26.6666H560.654C560.786 26.6717 560.912 26.6344 561.017 26.5593C561.121 26.4843 561.198 26.3774 561.231 26.254L562 23.6405V23.4959C562 23.4369 561.984 23.3831 561.962 23.3296C561.94 23.2762 561.907 23.2279 561.863 23.1905C561.842 23.1727 561.82 23.1566 561.798 23.1418C561.771 23.1252 561.744 23.1108 561.714 23.0993C561.659 23.0781 561.604 23.0726 561.544 23.0726H552.722Z" fill="white"/>
<circle cx="602" cy="16" r="16" fill="#627EEB"/>
<path d="M596.277 16.2882L601.998 20.9629V13.9033L596.277 16.2882Z" fill="#C0CBF8"/>
<path d="M602 13.9033V20.9589L607.718 16.2882L602 13.9033Z" fill="#8298EE"/>
<path d="M596.277 16.2879L601.998 3.17188V13.903L596.277 16.2879Z" fill="white"/>
<path d="M602 13.903V3.17188L607.718 16.2879L602 13.903Z" fill="#C0CBF8"/>
<path d="M596.277 18.1953L601.998 29.3328V22.866L596.277 18.1953Z" fill="white"/>
<path d="M602 22.866V29.3328L607.724 18.1953L602 22.866Z" fill="#C0CBF8"/>
</g>
<defs>
<linearGradient id="paint0_linear_17379_2" x1="70" y1="16" x2="166" y2="16" gradientUnits="userSpaceOnUse">
<stop stop-color="#0F2799"/>
<stop offset="1" stop-color="#0D2180"/>
</linearGradient>
<linearGradient id="paint1_linear_17379_2" x1="182" y1="16" x2="362" y2="16" gradientUnits="userSpaceOnUse">
<stop stop-color="#76BA0E"/>
<stop offset="1" stop-color="#66A10C"/>
</linearGradient>
<linearGradient id="paint2_linear_17379_2" x1="379.366" y1="16.1603" x2="474.588" y2="16.1603" gradientUnits="userSpaceOnUse">
<stop stop-color="#852167"/>
<stop offset="1" stop-color="#522357"/>
</linearGradient>
</defs>
</svg>
