<svg width="175" height="52" viewBox="0 0 175 52" fill="none" xmlns="http://www.w3.org/2000/svg">
<rect x="0.65" y="0.65" width="173.7" height="50.7" rx="5.85" fill="black"/>
<rect x="0.65" y="0.65" width="173.7" height="50.7" rx="5.85" stroke="#A6A6A6" stroke-width="1.3"/>
<path d="M138.619 38.9998H141.038V22.7477H138.619V38.9998ZM160.406 28.6024L157.633 35.6483H157.55L154.672 28.6024H152.067L156.383 38.4499L153.922 43.9281H156.444L163.096 28.6024H160.406ZM146.687 37.1539C145.896 37.1539 144.791 36.7563 144.791 35.7737C144.791 34.5194 146.167 34.0385 147.355 34.0385C148.418 34.0385 148.919 34.2681 149.565 34.5819C149.377 36.0875 148.084 37.1539 146.687 37.1539ZM146.98 28.2469C145.229 28.2469 143.415 29.0207 142.665 30.7352L144.811 31.634C145.27 30.7352 146.124 30.4427 147.022 30.4427C148.272 30.4427 149.544 31.1947 149.565 32.5333V32.7004C149.127 32.4495 148.188 32.0733 147.042 32.0733C144.727 32.0733 142.372 33.3483 142.372 35.732C142.372 37.9065 144.269 39.3075 146.395 39.3075C148.021 39.3075 148.919 38.5757 149.481 37.7181H149.565V38.9734H151.901V32.742C151.901 29.8566 149.752 28.2469 146.98 28.2469ZM132.031 30.5807H128.591V25.0101H132.031C133.839 25.0101 134.866 26.5112 134.866 27.7954C134.866 29.0548 133.839 30.5807 132.031 30.5807ZM131.969 22.7477H126.173V38.9998H128.591V32.8426H131.969C134.65 32.8426 137.285 30.8966 137.285 27.7954C137.285 24.6947 134.65 22.7477 131.969 22.7477ZM100.363 37.1569C98.6924 37.1569 97.2938 35.7533 97.2938 33.8272C97.2938 31.8788 98.6924 30.4553 100.363 30.4553C102.013 30.4553 103.308 31.8788 103.308 33.8272C103.308 35.7533 102.013 37.1569 100.363 37.1569ZM103.141 29.5124H103.057C102.514 28.8633 101.47 28.2769 100.155 28.2769C97.3976 28.2769 94.8709 30.7067 94.8709 33.8272C94.8709 36.9264 97.3976 39.335 100.155 39.335C101.47 39.335 102.514 38.7484 103.057 38.0786H103.141V38.8738C103.141 40.9899 102.013 42.1203 100.196 42.1203C98.7141 42.1203 97.7952 41.0524 97.4189 40.152L95.3099 41.0316C95.9151 42.4971 97.5227 44.2988 100.196 44.2988C103.037 44.2988 105.439 42.6231 105.439 38.5387V28.612H103.141V29.5124ZM107.11 38.9998H109.531V22.7477H107.11V38.9998ZM113.103 33.6383C113.04 31.5019 114.753 30.4132 115.985 30.4132C116.946 30.4132 117.76 30.8951 118.032 31.5858L113.103 33.6383ZM120.621 31.7949C120.161 30.5599 118.762 28.2769 115.901 28.2769C113.061 28.2769 110.701 30.5178 110.701 33.8059C110.701 36.9056 113.04 39.335 116.172 39.335C118.699 39.335 120.161 37.7856 120.767 36.8847L118.888 35.6279C118.261 36.5496 117.405 37.1569 116.172 37.1569C114.941 37.1569 114.063 36.5913 113.5 35.4812L120.871 32.4236L120.621 31.7949ZM61.8883 29.9734V32.319H67.4851C67.318 33.6383 66.8794 34.6016 66.2111 35.2719C65.3963 36.0885 64.1223 36.9894 61.8883 36.9894C58.4424 36.9894 55.7485 34.204 55.7485 30.7483C55.7485 27.2927 58.4424 24.5069 61.8883 24.5069C63.7471 24.5069 65.1042 25.2401 66.1067 26.1826L67.757 24.5277C66.3574 23.1875 64.499 22.1613 61.8883 22.1613C57.1678 22.1613 53.2 26.015 53.2 30.7483C53.2 35.4812 57.1678 39.335 61.8883 39.335C64.4358 39.335 66.3574 38.4971 67.8609 36.9264C69.4063 35.3766 69.8868 33.1986 69.8868 31.439C69.8868 30.8951 69.8447 30.3924 69.7612 29.9734H61.8883ZM76.2498 37.1569C74.5788 37.1569 73.1377 35.7746 73.1377 33.8059C73.1377 31.8163 74.5788 30.4553 76.2498 30.4553C77.9202 30.4553 79.3613 31.8163 79.3613 33.8059C79.3613 35.7746 77.9202 37.1569 76.2498 37.1569ZM76.2498 28.2769C73.1999 28.2769 70.7152 30.6015 70.7152 33.8059C70.7152 36.9894 73.1999 39.335 76.2498 39.335C79.2986 39.335 81.7839 36.9894 81.7839 33.8059C81.7839 30.6015 79.2986 28.2769 76.2498 28.2769ZM88.322 37.1569C86.6521 37.1569 85.2105 35.7746 85.2105 33.8059C85.2105 31.8163 86.6521 30.4553 88.322 30.4553C89.993 30.4553 91.4336 31.8163 91.4336 33.8059C91.4336 35.7746 89.993 37.1569 88.322 37.1569ZM88.322 28.2769C85.2732 28.2769 82.7885 30.6015 82.7885 33.8059C82.7885 36.9894 85.2732 39.335 88.322 39.335C91.3719 39.335 93.8567 36.9894 93.8567 33.8059C93.8567 30.6015 91.3719 28.2769 88.322 28.2769Z" fill="white"/>
<path d="M57.6555 17.2051C56.4934 17.2051 55.4937 16.795 54.6877 15.9868C53.8814 15.1781 53.473 14.1656 53.473 12.9882C53.473 11.8108 53.8816 10.8 54.6877 9.98956C55.4937 9.18128 56.4934 8.77132 57.6555 8.77132C58.2476 8.77132 58.8002 8.87388 59.3283 9.08743C59.8566 9.30101 60.2888 9.5975 60.6292 9.9855L60.7094 10.0772L59.8028 10.9861L59.7121 10.8744C59.4865 10.5963 59.1994 10.3802 58.8356 10.2232C58.4732 10.0665 58.0762 9.99413 57.6555 9.99413C56.837 9.99413 56.1578 10.2729 55.5906 10.8396C55.5905 10.8398 55.5902 10.8398 55.5901 10.8399C55.0358 11.4181 54.7571 12.122 54.7571 12.9882C54.7571 13.8551 55.0361 14.5592 55.5911 15.1375C56.1583 15.704 56.8374 15.9843 57.6555 15.9843C58.4049 15.9843 59.0246 15.7745 59.5119 15.3592H59.5121C59.9657 14.9727 60.2379 14.4503 60.3342 13.7845H57.5259V12.586H61.548L61.5652 12.6957C61.5981 12.9064 61.6214 13.1097 61.6214 13.3051C61.6214 14.4233 61.2814 15.3361 60.6145 16.0077C59.8616 16.8081 58.8714 17.2051 57.6555 17.2051L57.6555 17.2051ZM92.5801 17.2051C91.4161 17.2051 90.4282 16.7948 89.6325 15.9868C89.6325 15.9867 89.6324 15.9867 89.6323 15.9866C89.6322 15.9865 89.6321 15.9864 89.632 15.9863C88.8353 15.1871 88.44 14.1743 88.44 12.9882C88.44 11.8021 88.8353 10.7893 89.632 9.99006C89.6321 9.98997 89.6322 9.98993 89.6323 9.9898L89.6325 9.98954C90.4282 9.18146 91.4162 8.7713 92.5801 8.7713C93.7418 8.7713 94.7301 9.18156 95.5256 10.0017C96.3226 10.8008 96.7181 11.8117 96.7181 12.9882C96.7181 14.1743 96.3228 15.1871 95.5261 15.9863L95.5259 15.9866C94.7298 16.7951 93.7323 17.2051 92.5801 17.2051L92.5801 17.2051ZM62.7724 17.0304V8.94601H62.902H67.5869V10.1688H64.0342V12.389H67.2385V13.5874H64.0342V15.8096H67.5869V17.0304H62.7724ZM70.5334 17.0304V10.1688H68.354V8.94601H73.9747V10.1688H73.8451H71.7953V17.0304H70.5334ZM77.5669 17.0304V8.94601H78.8287V9.07601V17.0304H77.5669ZM82.0052 17.0304V10.1688H79.8258V8.94601H85.4464V10.1688H85.3168H83.267V17.0304H82.0052ZM97.8382 17.0304V8.94601H99.2611L102.882 14.76L102.851 13.6562V8.94601H104.113V17.0304H102.864L99.0689 10.9227L99.1001 12.0256V12.0274V17.0304H97.8382ZM92.5801 15.9843C93.3987 15.9843 94.0669 15.7043 94.6116 15.1385L94.6124 15.1375L94.6132 15.1367C95.1657 14.5825 95.436 13.8691 95.436 12.9882C95.436 12.1094 95.1656 11.3935 94.6132 10.8396L94.6124 10.8388L94.6116 10.838C94.067 10.2724 93.3989 9.99405 92.5801 9.99405C91.7599 9.99405 91.0919 10.2719 90.5369 10.8375L90.5364 10.838C89.9941 11.4054 89.7242 12.1096 89.7242 12.9881C89.7242 13.8688 89.994 14.5707 90.5364 15.1382L90.5369 15.1387C91.0919 15.7045 91.7601 15.9842 92.5801 15.9842V15.9843Z" fill="white"/>
<path d="M26.8522 25.2505L13.0511 39.9405C13.0517 39.9435 13.0527 39.9461 13.0532 39.9491C13.4765 41.5442 14.9292 42.7188 16.6534 42.7188C17.3427 42.7188 17.9898 42.5319 18.5447 42.2038L18.5888 42.1779L34.1236 33.1882L26.8522 25.2505Z" fill="#EA4335"/>
<path d="M40.8146 22.749L40.8014 22.7399L34.0946 18.8408L26.5386 25.5836L34.1209 33.1865L40.7923 29.3262C41.962 28.6929 42.756 27.4564 42.756 26.0304C42.756 24.6147 41.9726 23.3843 40.8146 22.749Z" fill="#FBBC04"/>
<path d="M13.0508 12.0594C12.9678 12.3662 12.9242 12.6876 12.9242 13.0213V38.9792C12.9242 39.3123 12.9673 39.6347 13.0513 39.9404L27.3273 25.6262L13.0508 12.0594Z" fill="#4285F4"/>
<path d="M26.9538 26L34.0972 18.8383L18.58 9.81604C18.016 9.47726 17.3577 9.28174 16.6533 9.28174C14.9291 9.28174 13.4744 10.4584 13.0511 12.0554C13.0505 12.057 13.0505 12.058 13.0505 12.0595L26.9538 26Z" fill="#34A853"/>
</svg>
