<svg width="372" height="32" viewBox="0 0 372 32" fill="none" xmlns="http://www.w3.org/2000/svg">
<g style="mix-blend-mode:luminosity">
<path d="M2.69687e-06 10.8529C2.69687e-06 22.6183 -0.00521832 22.411 0.443786 23.9451C1.6185 27.9516 4.95993 30.9629 9.15759 31.7922C10.2383 31.9995 12.4207 31.984 13.5067 31.7507C15.0782 31.4138 16.2268 30.9266 17.5634 30.0507C21.6879 27.3089 23.4996 22.1155 21.9751 17.3679C21.4269 15.6834 20.5341 14.2374 19.2027 12.9105C17.5529 11.2623 15.6212 10.2413 13.3083 9.78519C12.238 9.57787 10.1183 9.59342 9.04273 9.82666C7.21539 10.2206 5.57078 10.9876 4.12979 12.1383L3.86352 12.3456V2.56528L1.93176 1.28508L2.69687e-06 0.00488281V10.8529ZM13.0577 13.6673C15.0782 14.1856 16.8011 15.5383 17.7826 17.3679C19.7405 20.996 18.2682 25.5156 14.5143 27.3763C13.089 28.0812 11.3347 28.3092 9.82066 27.9982C7.07442 27.4333 4.96515 25.5104 4.12979 22.8101C3.93662 22.1777 3.91051 21.9808 3.91051 20.8302C3.90007 19.7262 3.92618 19.4618 4.08803 18.9124C4.78764 16.4972 6.57843 14.6106 8.91743 13.8383C9.31944 13.7035 9.86765 13.5584 10.1235 13.5169C10.8335 13.4029 12.3476 13.4858 13.0524 13.6673" fill="white"/>
<path d="M48.7378 11.0143C48.7639 23.2824 48.7326 22.5257 49.3278 24.2983C50.4973 27.7813 53.3532 30.5231 56.8617 31.5338C57.6291 31.7514 59.0284 31.9795 59.6131 31.9795H59.9838V28.1648L59.3416 28.1078C57.6083 27.9627 55.8488 27.1023 54.6219 25.7962C53.7343 24.8581 53.1652 23.8059 52.7945 22.4532C52.6274 21.8001 52.617 21.6705 52.617 17.6278V13.471L55.901 13.4451L59.1798 13.4296V9.59415H52.5752V2.51936L50.7479 1.32209C49.7507 0.669032 48.8788 0.0989029 48.8161 0.067805C48.7222 0.0107921 48.7117 1.66417 48.7378 11.0195" fill="white"/>
<path d="M88.4329 11.092C88.459 22.0125 88.459 22.194 88.6261 22.9455C89.143 25.2778 90.0984 27.0297 91.743 28.6675C92.6306 29.5383 93.6695 30.3053 94.6041 30.777C95.8624 31.3989 97.5174 31.8499 98.9532 31.9535L99.6841 32.0002V28.1388H99.303C98.7234 28.1388 97.5383 27.8693 96.8543 27.5894C95.1366 26.8794 93.6017 25.3763 92.8916 23.7229C92.7611 23.4016 92.5784 22.8937 92.4792 22.5879C92.3173 22.0385 92.3173 21.8467 92.286 12.2789L92.2599 2.52968L91.7221 2.17723C91.4245 1.9751 90.5526 1.41015 89.7904 0.912583L88.3964 0.0107422L88.4277 11.0972L88.4329 11.092Z" fill="#FF2727"/>
<path d="M146.699 15.8755V31.7407H150.562V25.0183L152.171 23.028C153.058 21.9241 153.794 21.0274 153.815 21.0274C153.836 21.0274 155.126 23.4323 156.692 26.3814L159.543 31.7355H161.772C163.004 31.7355 164.012 31.7199 164.012 31.7096C164.012 31.694 162.331 28.5583 160.268 24.754C158.206 20.9393 156.514 17.7984 156.509 17.7621C156.494 17.731 157.961 15.8755 159.772 13.6468C161.574 11.4181 163.051 9.57817 163.051 9.55226C163.051 9.52634 161.949 9.51079 160.613 9.51079H158.164L154.426 14.1392C152.374 16.6892 150.667 18.7728 150.636 18.7728C150.594 18.7832 150.573 15.1188 150.573 10.6459V2.52412L149.785 2.011C149.356 1.72075 148.49 1.15581 147.858 0.746351L146.709 0V15.8755H146.699Z" fill="#FF2727"/>
<path d="M63.367 10.972C63.367 22.9758 63.3513 22.5197 63.8682 24.142C64.9542 27.5524 67.7108 30.3201 71.0993 31.3982C72.4776 31.8387 73.1041 31.932 74.6025 31.932C76.1009 31.932 76.7692 31.8284 78.1058 31.4033C80.9408 30.4911 83.3477 28.4283 84.7103 25.7435C85.0862 25.0023 85.5718 23.4837 85.718 22.6182C85.8798 21.6334 85.8694 19.9023 85.7075 18.9331C84.9348 14.3668 81.4577 10.8113 76.7953 9.811C75.7146 9.58813 73.6784 9.56221 72.6029 9.7799C70.9426 10.1012 69.1832 10.858 67.951 11.7857C67.5751 12.076 67.2357 12.304 67.2096 12.304C67.1835 12.304 67.1626 10.0961 67.1626 7.39572V2.50298L65.3353 1.32126C64.3381 0.668199 63.4819 0.113618 63.4453 0.108435C63.414 0.0928864 63.3827 4.98563 63.3827 10.9772M76.4664 13.6723C76.8214 13.7708 77.4427 13.9989 77.8343 14.1906C82.5227 16.4867 83.4625 22.5974 79.6773 26.1582C79.0508 26.7438 78.5757 27.0548 77.6881 27.4695C76.5395 28.0033 76.0279 28.107 74.5712 28.1018C73.4591 28.0914 73.2503 28.0759 72.6133 27.8841C69.8984 27.06 67.9197 24.9505 67.3454 22.2709C67.194 21.5453 67.194 20.0319 67.3506 19.2959C67.9876 16.3727 70.3161 14.1181 73.3025 13.5479C74.1013 13.3976 75.6311 13.4598 76.456 13.6671" fill="#FF2727"/>
<path d="M188.785 9.57264C188.754 9.59855 188.728 14.6001 188.728 20.685V31.7403H192.586L192.612 25.6814C192.644 19.7106 192.644 19.6225 192.821 18.9901C193.046 18.192 193.537 17.1502 193.996 16.5178C194.398 15.9581 195.286 15.0977 195.818 14.7349C196.826 14.0559 198.22 13.5584 199.358 13.4651L200 13.4081V9.57264L199.301 9.62965C197.813 9.74886 196.272 10.1635 194.967 10.8114C194.314 11.1379 193.009 11.9879 192.832 12.2004C192.774 12.2626 192.701 12.3144 192.665 12.3144C192.628 12.3144 192.592 11.6821 192.592 10.915V9.51562H190.717C189.678 9.51562 188.812 9.54154 188.785 9.57264Z" fill="#FF2727"/>
<path d="M34.187 9.6772C31.5713 10.0037 29.4046 11.0662 27.5355 12.9477C25.8856 14.601 24.9563 16.2959 24.4603 18.5764C24.2045 19.7737 24.2045 21.8521 24.4603 23.0182C24.7109 24.1222 25.0503 25.0655 25.5306 25.9777C27.1073 28.9735 29.958 31.083 33.3725 31.7879C34.3854 31.9952 36.6252 31.9952 37.638 31.7879C42.7181 30.7409 46.3675 26.6411 46.7434 21.5255L46.8009 20.7895H42.9373L42.8799 21.4271C42.7859 22.5777 42.3056 23.9045 41.6269 24.9204C41.1779 25.5942 39.9979 26.693 39.2931 27.1024C37.2256 28.2997 34.8083 28.4552 32.5789 27.5326C31.942 27.2683 30.8978 26.5738 30.454 26.1177L30.1094 25.7652L38.1601 21.5048C42.598 19.1621 46.2213 17.2029 46.2213 17.1511C46.2213 16.9334 45.1406 14.9276 44.6759 14.2797C43.0522 11.9992 40.5461 10.3976 37.7425 9.82751C36.8183 9.64611 35.0589 9.56318 34.1922 9.6772M37.3248 13.6629C38.4786 13.9687 39.8831 14.7358 40.5722 15.4511L40.8437 15.7309L39.3244 16.5291C38.4943 16.9697 35.675 18.4624 33.0592 19.8462L28.3082 22.3652L28.2351 22.1475C28.1933 22.0335 28.162 21.396 28.162 20.7377C28.162 19.6596 28.1776 19.4679 28.3813 18.8304C29.2323 16.0419 31.4094 14.0827 34.2496 13.5385C35.038 13.3882 36.4946 13.4504 37.3248 13.6577" fill="white"/>
<path d="M110.517 9.67687C106.226 10.2107 102.634 13.0665 101.219 17.0523C100.759 18.3532 100.613 19.2239 100.613 20.784C100.603 22.3597 100.702 22.9661 101.177 24.381C102.441 28.1646 105.662 30.9427 109.745 31.7927C110.705 31.9897 112.971 31.9897 113.932 31.7927C118.547 30.8235 121.904 27.5219 122.886 23.0023C123.137 21.8362 123.137 19.7422 122.886 18.5761C122.395 16.3163 121.419 14.5385 119.779 12.9111C118.119 11.2577 116.187 10.2314 113.927 9.80126C113.123 9.65095 111.295 9.58357 110.523 9.68205M113.655 13.6678C114.365 13.8492 115.42 14.3208 116.015 14.7251C116.563 15.0983 117.446 15.9638 117.853 16.5236C119.012 18.1303 119.498 20.302 119.106 22.1523C118.777 23.7591 118.067 25.0133 116.85 26.1588C115.368 27.5478 113.483 28.2372 111.442 28.1231C109.599 28.0195 108.1 27.3716 106.748 26.0759C105.662 25.0393 105.015 23.9508 104.628 22.51C104.404 21.6548 104.419 19.8459 104.66 19.0114C105.495 16.109 107.672 14.1031 110.575 13.5537C111.363 13.4034 112.82 13.4656 113.65 13.673" fill="white"/>
<path d="M108.722 16.0726C108.132 16.4562 107.208 17.415 106.926 17.9437L106.722 18.3117L110.528 22.0901L114.329 25.8633L114.71 25.6612C115.211 25.4072 116.49 24.1322 116.746 23.6398L116.95 23.2614L113.165 19.5038C111.082 17.4357 109.348 15.7461 109.301 15.7461C109.254 15.7461 108.993 15.8912 108.722 16.0674" fill="#FF2727"/>
<path d="M134.863 9.68732C132.962 9.92056 130.916 10.7447 129.428 11.8745C128.608 12.4965 127.407 13.7612 126.87 14.5593C125.966 15.9017 125.397 17.3582 125.105 18.9856C124.901 20.1829 124.938 22.0073 125.194 23.1113C126.217 27.5531 129.47 30.751 133.986 31.7513C135.072 31.9897 137.165 32.0053 138.267 31.7928C139.144 31.6166 140.23 31.2641 141.034 30.8961C141.687 30.6007 142.981 29.7714 143.488 29.3205L143.796 29.0562L142.491 27.636L141.196 26.2211L140.987 26.4128C140.59 26.7653 139.781 27.268 139.118 27.5531C137.212 28.3668 134.795 28.315 132.983 27.408C131.422 26.6253 130.3 25.4955 129.537 23.9406C128.974 22.7899 128.791 21.8933 128.843 20.5042C128.89 19.2499 129.036 18.6746 129.543 17.6277C130.216 16.2438 131.078 15.3005 132.362 14.5179C134.889 12.9682 138.105 13.1029 140.564 14.8548C140.888 15.088 141.185 15.2539 141.222 15.2124C141.253 15.1813 141.828 14.5386 142.496 13.7974L143.712 12.4395L143.446 12.2166C142.172 11.1126 140.115 10.1538 138.236 9.79617C137.405 9.63549 135.677 9.57848 134.852 9.68214" fill="#FF2727"/>
<path d="M174.046 9.6768C169.013 10.3091 165.061 14.0305 164.226 18.9388C164.059 19.9132 164.059 21.6495 164.226 22.6291C164.372 23.5102 164.863 25.0185 165.233 25.7441C166.82 28.8798 169.702 31.0463 173.279 31.7875C174.229 31.9844 176.438 31.9844 177.383 31.7875C180.959 31.0463 183.841 28.885 185.428 25.7441C186.039 24.5468 186.561 22.5099 186.561 21.323V20.7788H182.791L182.744 21.0742C182.718 21.2401 182.682 21.5925 182.656 21.8568C182.593 22.427 182.275 23.4584 181.998 24.013C181.465 25.0496 180.458 26.2054 179.518 26.8532C178.98 27.2212 177.764 27.7706 177.101 27.9417C176.667 28.0557 176.255 28.0868 175.289 28.0868C174.172 28.0764 173.968 28.0609 173.315 27.8639C172.156 27.5115 170.809 26.7289 170.12 26.0032L169.896 25.77L177.946 21.5096C182.995 18.8403 185.997 17.2077 185.997 17.1351C185.997 16.933 185.24 15.3988 184.828 14.7769C183.152 12.2009 180.562 10.4387 177.523 9.82711C176.599 9.63534 174.897 9.56278 174.046 9.66644M177.179 13.6522C178.327 13.9476 179.763 14.7458 180.463 15.4818L180.687 15.715L174.448 19.0166C171.018 20.8306 168.183 22.3181 168.152 22.3233C167.927 22.3544 167.87 20.1827 168.074 19.2757C168.716 16.3318 171.034 14.0979 174.025 13.5278C174.829 13.3775 176.354 13.4397 177.184 13.647" fill="#FF2727"/>
<path d="M221.021 27.1617C219.548 25.7792 218.336 24.1524 217.472 22.3021C216.546 20.3271 216 18.0974 216 15.7794V15.6858C216 7.02692 223.161 0 231.984 0C240.808 0 248 7.02692 248 15.6858C248 15.8106 248 15.9353 247.968 16.06H244.483C244.483 13.3626 243.588 10.8834 242.052 8.90839C240.58 7.02692 238.567 5.58203 236.205 4.79722L236.015 4.61012L236.11 4.26709L235.76 4.32945L235.538 4.04879L235.379 4.36064H234.998L235.157 4.67248L234.934 4.95315L235.252 5.0467L235.347 5.38973L235.633 5.20262L235.951 5.35854V5.01551C238.318 5.76914 240.363 7.20883 241.83 9.09549C243.302 11.0081 244.197 13.4249 244.197 16.06H243.175C243.175 13.1131 241.962 10.478 239.976 8.59654C238.059 6.74626 235.405 5.58723 232.466 5.49368L232.657 5.30657L231.921 5.05709L231.762 4.30347L231.121 4.74005L230.416 4.36584L230.353 5.11946L229.617 5.43131L230.194 5.96664L229.971 6.72027L230.739 6.62672L231.221 7.2556L231.635 6.59553L232.402 6.62672L232.148 5.90427C235.088 5.90427 237.773 7.03211 239.69 8.8824C241.607 10.7015 242.788 13.2119 242.788 16.0652H240.585C240.585 14.4332 240.103 12.926 239.309 11.6734C238.636 10.6391 237.741 9.76076 236.687 9.10069L237.068 8.72648L236.459 8.477L236.364 7.84811L235.787 8.15996L235.241 7.81693L235.146 8.44581L234.505 8.66411L234.95 9.16826L234.728 9.76596L235.4 9.73478L235.75 10.2701L236.131 9.73478L236.772 9.79714L236.74 9.61004C237.635 10.2077 238.371 10.9926 238.943 11.9021C239.743 13.0923 240.188 14.506 240.188 16.0756H237.249C237.249 14.9478 236.867 13.9759 236.226 13.1911C235.681 12.4998 234.95 11.9697 234.087 11.6214L234.309 11.372L233.928 11.2472L233.864 10.8106L233.515 11.0289L233.165 10.8106L233.102 11.216L232.688 11.3408L232.974 11.6526L232.847 12.058L233.26 12.0268L233.483 12.3699L233.737 12.0268L234.15 12.0892L234.118 11.9645C234.855 12.2763 235.527 12.7805 236.004 13.3782C236.581 14.1006 236.931 15.0413 236.963 16.0756H220.597C220.629 17.2347 220.851 18.3677 221.206 19.402C221.619 20.4986 222.165 21.5017 222.869 22.4113L223.028 22.2242L223.155 22.4425H223.441L223.346 22.692L223.505 22.9102L223.251 22.9726L223.187 23.2533L222.965 23.0974L222.71 23.1909V22.9414L222.456 22.8167L222.647 22.6296L222.615 22.4113C221.942 21.5017 221.402 20.5298 221.016 19.4644C220.666 18.3989 220.438 17.271 220.375 16.0756H217.689C217.721 16.4187 217.721 16.7669 217.753 17.1099C217.785 17.453 217.848 17.8012 217.912 18.113L218.007 17.9883L218.134 18.2378H218.42L218.293 18.4872L218.484 18.7055L218.198 18.7679L218.166 19.0174L217.944 18.8615L217.689 18.9862L217.658 18.7055L217.435 18.612L217.626 18.4249L217.562 18.1754L217.721 18.2066C217.658 17.8324 217.594 17.4841 217.562 17.1411C217.531 16.7981 217.499 16.4498 217.499 16.0756H216.318C216.35 18.2689 216.863 20.3115 217.727 22.193C218.622 24.0433 219.834 25.7376 221.37 27.1202H221.402L221.656 26.7771L221.879 27.1513H222.292L222.133 27.5256L222.387 27.8374L221.974 27.9621L221.911 28.3675L221.561 28.1181L221.18 28.3052L221.148 27.8998L220.767 27.7127L221.084 27.432L221.021 27.1825V27.1617Z" fill="url(#paint0_radial_17379_45)"/>
<path d="M224.76 20.0098V19.9786C224.76 19.6668 224.982 19.4121 225.305 19.4121H225.432C225.75 19.4121 225.978 19.6616 225.978 19.9786V20.0098C225.978 20.2905 225.755 20.5451 225.432 20.5451H225.305C224.988 20.5451 224.76 20.2957 224.76 20.0098ZM224.76 25.2488V21.7354C224.76 21.4235 224.982 21.1688 225.305 21.1688H225.432C225.75 21.1688 225.978 21.4183 225.978 21.7354V25.2488C225.978 25.5607 225.755 25.8153 225.432 25.8153H225.305C224.988 25.8153 224.76 25.5659 224.76 25.2488ZM228.753 25.2488V20.514H226.804V19.9786C226.804 19.6668 227.058 19.4121 227.381 19.4121H231.984V19.9474C231.984 20.2593 231.73 20.514 231.407 20.514H230.067V25.2488C230.067 25.5607 229.812 25.8153 229.489 25.8153H229.299C228.981 25.8153 228.753 25.5659 228.753 25.2488ZM235.305 24.4016L235.336 24.4328C235.527 24.464 235.686 24.5887 235.781 24.7759C235.845 24.9941 235.781 25.1812 235.654 25.3424C235.559 25.4359 235.463 25.4983 235.368 25.5607C235.019 25.8101 234.6 25.9349 234.06 25.9349C233.26 25.9349 232.651 25.6542 232.238 25.1189C231.952 24.7135 231.793 24.1781 231.793 23.5181C231.793 22.7644 231.984 22.1667 232.402 21.7302C232.821 21.2936 233.329 21.0701 233.938 21.0701C234.643 21.0701 235.215 21.2884 235.601 21.7613C235.919 22.1044 236.115 22.6085 236.178 23.2374C236.178 23.4245 236.147 23.5493 236.02 23.674C235.924 23.7987 235.797 23.8299 235.638 23.8299H233.08C233.08 24.2041 233.175 24.49 233.366 24.7083C233.557 24.8954 233.811 24.9889 234.102 24.9889C234.293 24.9889 234.452 24.9578 234.584 24.833C234.648 24.8018 234.711 24.7395 234.743 24.6459C234.87 24.4588 235.093 24.3653 235.32 24.3964L235.305 24.4016ZM234.955 23.1179C234.955 22.7437 234.86 22.489 234.669 22.3019C234.51 22.1148 234.288 22.0212 234.028 22.0212C233.742 22.0212 233.514 22.1148 233.356 22.3019C233.165 22.489 233.101 22.7748 233.101 23.1179H234.955ZM240.611 22.6813H240.548C240.325 22.7437 240.103 22.6189 239.971 22.4318C239.939 22.3383 239.875 22.2759 239.812 22.2447C239.653 22.12 239.462 22.0576 239.234 22.0576C238.917 22.0576 238.689 22.1512 238.498 22.3694C238.308 22.5877 238.212 22.936 238.212 23.4349C238.212 23.9702 238.308 24.3756 238.498 24.5939C238.689 24.8122 238.943 24.937 239.234 24.937C239.489 24.937 239.679 24.8746 239.843 24.7187C239.907 24.6563 239.971 24.5628 240.034 24.438C240.129 24.2197 240.384 24.095 240.643 24.1262L240.739 24.1574C240.897 24.1885 241.056 24.2821 241.12 24.438C241.215 24.5939 241.215 24.781 241.12 24.9422C240.993 25.1605 240.834 25.3476 240.638 25.5087C240.288 25.7893 239.806 25.9453 239.197 25.9453C238.493 25.9453 237.953 25.727 237.534 25.2852C237.116 24.8434 236.925 24.2821 236.925 23.4973C236.925 22.7125 237.116 22.146 237.534 21.7094C237.947 21.304 238.493 21.0805 239.197 21.0805C239.775 21.0805 240.251 21.2052 240.574 21.4547C240.733 21.5482 240.86 21.673 240.956 21.7977C241.083 21.9536 241.083 22.1408 241.019 22.3331C240.956 22.5254 240.797 22.6449 240.606 22.6761L240.611 22.6813ZM243.487 19.9838V21.8029C243.9 21.33 244.382 21.0805 244.96 21.0805C245.246 21.0805 245.505 21.1429 245.728 21.2364C245.95 21.33 246.141 21.4859 246.241 21.6418C246.368 21.7977 246.464 21.9848 246.496 22.1771C246.527 22.3694 246.559 22.6813 246.559 23.0867V25.2488C246.559 25.5607 246.305 25.8153 245.982 25.8153H245.855C245.569 25.8153 245.309 25.5659 245.309 25.2488V23.3673C245.309 22.8632 245.277 22.5825 245.246 22.4578C245.182 22.3019 245.119 22.2083 244.991 22.146C244.864 22.0524 244.705 22.0212 244.547 22.0212C244.324 22.0212 244.133 22.0524 243.969 22.1771C243.81 22.2707 243.683 22.4266 243.62 22.6137C243.524 22.8008 243.493 23.1179 243.493 23.4921V25.2488C243.493 25.5607 243.238 25.8153 242.947 25.8153H242.82C242.502 25.8153 242.243 25.5659 242.243 25.2488V19.9786C242.243 19.6668 242.497 19.4121 242.82 19.4121H242.947C243.233 19.4121 243.493 19.6616 243.493 19.9786L243.487 19.9838ZM224.85 31.9015V27.4161C224.85 27.1355 225.104 26.8808 225.364 26.8808H225.395C225.681 26.8808 225.909 27.1303 225.909 27.4161V31.0543H228.499V31.3974C228.499 31.678 228.245 31.9015 227.953 31.9015H224.855H224.85ZM229.966 29.36L229.775 29.3288C229.585 29.2976 229.426 29.1729 229.362 28.9546C229.33 28.7675 229.394 28.5492 229.585 28.4192C229.839 28.2633 230.194 28.1698 230.67 28.1698C231.115 28.1698 231.438 28.2321 231.661 28.3257C231.883 28.4192 232.01 28.544 232.106 28.6999C232.201 28.8558 232.233 29.1365 232.233 29.5783V30.7061C232.233 31.018 232.233 31.2726 232.265 31.3974C232.296 31.5533 232.36 31.7404 232.455 31.9015H231.846C231.624 31.9015 231.433 31.7768 231.364 31.5585L231.332 31.5273C231.174 31.6832 230.983 31.808 230.787 31.8703C230.596 31.9639 230.406 31.9951 230.178 31.9951C229.796 31.9951 229.505 31.9015 229.283 31.6832C229.06 31.4961 228.933 31.2466 228.933 30.9296C228.933 30.7113 228.997 30.5242 229.092 30.3631C229.187 30.202 229.346 30.0824 229.505 29.9889C229.696 29.8953 229.95 29.8329 230.305 29.7706C230.75 29.677 231.073 29.6147 231.264 29.5211V29.4275C231.264 29.2404 231.2 29.1157 231.136 29.0221C231.041 28.9598 230.85 28.9286 230.591 28.9286C230.4 28.9286 230.273 28.9598 230.178 29.0221C230.082 29.0845 229.987 29.2093 229.955 29.3652L229.966 29.36ZM231.274 30.1448C231.147 30.2072 230.956 30.2383 230.665 30.3007C230.411 30.3631 230.22 30.4255 230.12 30.4566C229.992 30.5502 229.929 30.6749 229.929 30.7997C229.929 30.9556 229.992 31.0491 230.088 31.1739C230.183 31.2674 230.31 31.2986 230.469 31.2986C230.66 31.2986 230.819 31.2362 230.983 31.1427C231.11 31.0491 231.205 30.9556 231.237 30.8308C231.237 30.7373 231.269 30.5814 231.269 30.3267V30.1396L231.274 30.1448ZM233.16 31.9015V26.8496H233.642C233.928 26.8496 234.155 27.0679 234.155 27.3538V28.6687C234.473 28.3257 234.828 28.1646 235.241 28.1646C235.686 28.1646 236.073 28.3205 236.359 28.6375C236.676 28.9806 236.803 29.4223 236.803 30.0512C236.803 30.6801 236.645 31.1479 236.359 31.4961C236.041 31.8391 235.686 32.0003 235.241 32.0003C235.05 32.0003 234.828 31.9379 234.632 31.8443C234.41 31.7196 234.251 31.5949 234.086 31.3714V31.4026C234.086 31.6832 233.864 31.9067 233.573 31.9067H233.16V31.9015ZM234.15 29.9889C234.15 30.3943 234.214 30.6801 234.309 30.836C234.5 31.1167 234.722 31.2414 235.013 31.2414C235.236 31.2414 235.395 31.1479 235.559 30.9608C235.723 30.7737 235.781 30.4878 235.781 30.0824C235.781 29.677 235.718 29.36 235.559 29.1729C235.4 28.9858 235.209 28.9234 234.982 28.9234C234.727 28.9234 234.537 28.9858 234.372 29.1729C234.208 29.36 234.15 29.6458 234.15 29.9889ZM237.248 30.8672L237.857 30.7737C238.048 30.7425 238.239 30.836 238.371 30.992C238.403 31.0543 238.435 31.1167 238.498 31.1479C238.625 31.2414 238.816 31.3038 239.044 31.3038C239.298 31.3038 239.489 31.2414 239.621 31.1479C239.716 31.0855 239.748 31.0232 239.748 30.8984C239.748 30.836 239.716 30.7737 239.685 30.7113C239.621 30.6801 239.526 30.6178 239.367 30.5866C238.567 30.4306 238.059 30.2747 237.831 30.1136C237.545 29.9265 237.386 29.6406 237.386 29.2976C237.386 28.9858 237.513 28.6999 237.767 28.4816C238.022 28.2633 238.44 28.1698 238.948 28.1698C239.457 28.1698 239.843 28.2633 240.098 28.4192C240.352 28.5752 240.511 28.8246 240.611 29.1417L240.066 29.2352C239.875 29.2664 239.685 29.2041 239.552 29.0793L239.457 28.9858C239.362 28.8922 239.203 28.861 238.975 28.861C238.721 28.861 238.53 28.8922 238.398 28.9858C238.334 29.0169 238.302 29.0793 238.302 29.1729C238.302 29.2352 238.334 29.2976 238.398 29.3288C238.493 29.4223 238.779 29.4847 239.324 29.6095C239.838 29.7342 240.22 29.8589 240.41 30.046C240.633 30.202 240.728 30.4514 240.728 30.7685C240.728 31.1115 240.601 31.3974 240.315 31.6468C240.029 31.8651 239.61 31.9899 239.038 31.9899C238.525 31.9899 238.143 31.8963 237.826 31.678C237.54 31.4909 237.344 31.2051 237.248 30.862V30.8672Z" fill="white"/>
<path fill-rule="evenodd" clip-rule="evenodd" d="M268.45 18.4523L268.879 19.0955L268.052 19.2902C267.407 19.4428 266.759 19.5954 266.113 19.7449C265.463 19.8976 264.812 20.0455 264.161 20.1888C263.959 20.2324 263.959 20.3009 264.093 20.4333C264.206 20.547 264.315 20.6669 264.425 20.7868L265.289 21.726C268.415 25.1196 271.54 28.5147 274.664 31.9115C274.74 31.994 274.796 32.0189 274.911 31.9847C275.583 31.7822 276.257 31.5875 276.931 31.3913L278.172 31.0284L279.969 30.4973L281.807 29.9538L284.789 29.0816L287.026 28.4275C288.25 28.0756 289.47 27.7158 290.689 27.3467H290.69L291.363 27.1442L291.303 27.0819C291.271 27.0461 291.237 27.0103 291.201 26.9776L291.08 26.8701L291.077 26.8686C290.149 26.0447 289.219 25.2224 288.289 24.4016L287.375 23.6027C286.767 23.0731 286.159 22.5436 285.566 22.0016C284.958 21.4503 284.341 20.9068 283.717 20.3726L283.69 20.3492L282.722 19.5082C282.745 19.4132 282.789 19.3244 282.851 19.2481L282.88 19.2076L284.729 16.5398C286.835 13.4997 288.937 10.4581 291.034 7.41331L292.807 4.85447L293.977 3.16311L295.489 0.974943L296.165 0L295.907 0.247629C295.054 1.10265 294.198 1.95612 293.342 2.80802L291.98 4.16453L288.363 7.77774L285.213 10.9237C283.47 12.6649 281.728 14.4061 279.98 16.1411C279.932 16.1909 279.884 16.2423 279.837 16.2953C279.703 16.4432 279.568 16.5912 279.378 16.6768L279.32 16.6815C279.278 16.6846 279.236 16.6877 279.195 16.6971L278.981 16.7469C277.754 17.0319 276.528 17.3169 275.303 17.605L273.231 18.0972L272.309 18.3183C272.172 18.3339 272.058 18.2763 271.938 18.2124L271.655 18.0629L270.194 17.2904C269.198 16.764 268.199 16.2392 267.199 15.7175C267.13 15.6801 267.061 15.6427 266.993 15.6022C266.8 15.4901 266.595 15.3733 266.337 15.3094L266.696 15.8389L267.452 16.9572L268.452 18.4523H268.45ZM274.577 19.5923C274.437 19.5191 274.295 19.4459 274.155 19.3727C274.44 19.2606 274.738 19.1983 275.037 19.136C275.191 19.1048 275.346 19.0706 275.499 19.0316C275.947 18.9164 276.399 18.8167 276.85 18.7155L277.343 18.6065C277.384 18.5971 277.424 18.594 277.466 18.5909L277.524 18.5862L277.132 18.9787L275.993 20.1249C275.901 20.2184 275.828 20.2636 275.683 20.1826C275.317 19.9801 274.95 19.7839 274.577 19.5923ZM281.692 20.9317C281.754 20.8367 281.813 20.7401 281.908 20.6716L282.448 21.1637C282.842 21.5251 283.237 21.8864 283.638 22.2415C284.708 23.1884 285.782 24.1306 286.855 25.0744L287.958 26.0416L288.297 26.3359L288.48 26.4932L287.837 26.6879C287.375 26.8281 286.926 26.9636 286.478 27.0944L285.168 27.4744L283.827 27.8637C283.017 28.1005 282.208 28.3403 281.397 28.5802L279.136 29.2467L277.811 29.6361C277.014 29.8666 276.218 30.0986 275.425 30.3369C275.272 30.3836 275.19 30.3572 275.087 30.2435L271.221 26.0478L271.218 26.0447L269.085 23.7304L268.257 22.8271C267.783 22.3069 267.309 21.7883 266.829 21.2759C266.664 21.0983 266.735 21.0672 266.911 21.0267C267.668 20.8554 268.423 20.6809 269.179 20.505H269.18L269.477 20.4364L269.649 20.3913L269.73 20.3695C269.98 20.6545 270.186 20.9722 270.393 21.2883L270.634 21.6543C271.136 22.3894 271.631 23.1276 272.124 23.8659L273.065 25.2675C273.61 26.0774 274.158 26.8841 274.705 27.6909L274.708 27.694L275.672 29.1175C275.855 29.3885 275.868 29.3838 276.052 29.1175L277.327 27.2782L278.786 25.1725C279.739 23.7895 280.688 22.405 281.636 21.0173L281.692 20.9317Z" fill="white"/>
<path d="M342.386 23.5976C342.109 23.9091 341.801 24.1941 341.469 24.4495C340.313 25.2905 339.022 25.5942 337.61 25.4369C336.53 25.317 335.511 25.0257 334.595 24.4215C333.465 23.6895 332.655 22.5822 332.314 21.3098C331.647 18.8989 331.95 16.5518 333.04 14.3325C333.988 12.3982 335.551 11.1056 337.636 10.5168C339.43 9.98733 341.362 10.0917 343.084 10.8096C344.18 11.2597 345.01 12.0151 345.502 13.1099C345.781 13.7267 345.882 14.3808 345.921 15.0505C345.929 15.1595 345.894 15.2078 345.774 15.2062C345.018 15.2016 344.261 15.2031 343.505 15.2093C343.353 15.2093 343.347 15.133 343.339 15.0271L343.337 15.0116C343.271 14.2796 343.011 13.6255 342.457 13.1271C341.917 12.6427 341.248 12.4138 340.54 12.3328C339.328 12.1926 338.176 12.3608 337.15 13.0897C336.312 13.6862 335.722 14.4805 335.308 15.404C334.634 16.8789 334.404 18.508 334.644 20.1043C334.831 21.3611 335.419 22.3937 336.612 22.9746C337.487 23.3998 338.419 23.4637 339.368 23.3126C340.917 23.0665 341.899 22.1165 342.529 20.7429C342.683 20.4096 342.792 20.0623 342.902 19.715L342.929 19.6309C342.99 19.4362 342.961 19.3786 342.741 19.3801C342.21 19.3848 341.68 19.3848 341.15 19.3848C340.527 19.3848 339.905 19.3848 339.285 19.3926C339.014 19.3957 338.985 19.31 339.038 19.0811C339.151 18.5952 339.252 18.1046 339.341 17.614C339.373 17.438 339.481 17.4396 339.601 17.4411H344.438C344.77 17.4427 345.105 17.4442 345.437 17.4411C345.597 17.438 345.674 17.4474 345.628 17.6545C345.402 18.6902 345.184 19.7259 344.967 20.7615L344.699 22.0246L344.502 22.9435C344.362 23.5976 344.222 24.2502 344.09 24.9058C344.053 25.0865 343.99 25.1519 343.8 25.1457C343.405 25.1317 343.008 25.1317 342.613 25.1472C342.42 25.155 342.378 25.0818 342.383 24.9074C342.391 24.6146 342.389 24.3218 342.388 24.0088V24.0056L342.386 23.5976Z" fill="white"/>
<path fill-rule="evenodd" clip-rule="evenodd" d="M372 25.1565L371.36 25.1518C370.791 25.1456 370.223 25.144 369.654 25.1471C369.445 25.1487 369.374 25.0926 369.343 24.8808C369.251 24.2469 369.153 23.6162 369.055 22.9839L368.832 21.5292C368.805 21.3423 368.755 21.2629 368.542 21.2645C366.766 21.2738 364.988 21.2723 363.211 21.2645C363.034 21.2645 362.947 21.3283 362.865 21.4716L361.935 23.0726L360.823 24.9929C360.755 25.1129 360.677 25.144 360.55 25.144H360.486C358.872 25.1378 357.257 25.1393 355.643 25.1471C355.442 25.1487 355.385 25.0583 355.347 24.901C355.21 24.3279 355.245 23.7486 355.294 23.1723C355.314 22.9076 355.345 22.6428 355.374 22.378C355.426 21.9264 355.477 21.4778 355.487 21.0262C355.498 20.6026 355.493 20.179 355.239 19.8114C354.926 19.3566 354.444 19.2118 353.938 19.1729C353.04 19.1028 352.141 19.1106 351.239 19.1184C350.785 19.1215 350.332 19.1261 349.877 19.1184C349.715 19.1184 349.698 19.2149 349.682 19.313L349.674 19.3629C349.445 20.4608 349.216 21.5588 348.991 22.6568L348.849 23.3265C348.738 23.8576 348.626 24.3887 348.523 24.9213C348.489 25.0988 348.415 25.1471 348.244 25.144C347.524 25.1347 346.802 25.1362 346.081 25.1456C345.888 25.1487 345.868 25.0864 345.904 24.9166C346.768 20.8377 347.616 16.7542 348.448 12.6691L348.667 11.621L348.859 10.7145V10.713C348.881 10.604 348.896 10.5292 349.049 10.5308L351.51 10.537C352.88 10.537 354.249 10.5401 355.618 10.5557C356.436 10.5666 357.241 10.7052 357.992 11.0743C358.941 11.5415 359.523 12.2844 359.725 13.3123C359.923 14.3277 359.849 15.3198 359.402 16.2652C358.977 17.1591 358.248 17.6995 357.333 18.0141C357.157 18.0718 356.978 18.1247 356.797 18.1699L356.512 18.2478C356.949 18.4331 357.308 18.6589 357.568 19.0109C357.939 19.5108 358.035 20.098 358.06 20.6991C358.079 21.2209 358.019 21.7348 357.958 22.2503C357.926 22.5353 357.892 22.8219 357.873 23.11C357.84 23.5913 357.815 24.0725 357.895 24.5522L357.898 24.5724C357.923 24.7095 357.947 24.8528 358.055 24.9945L358.256 24.669C358.4 24.4385 358.54 24.2127 358.677 23.9837L360.452 21.0231C361.329 19.5591 362.207 18.0967 363.086 16.6343V16.6312C364.206 14.77 365.326 12.9089 366.431 11.0369C366.651 10.6631 366.872 10.4872 367.327 10.523C367.82 10.5588 368.318 10.5494 368.816 10.5385L369.251 10.5308C369.405 10.5292 369.461 10.5744 369.485 10.7286C369.685 11.9293 369.89 13.1301 370.098 14.3293L370.425 16.1764L370.427 16.1857L370.73 17.8989C371.012 19.5124 371.291 21.1274 371.568 22.7425L371.623 23.0508C371.718 23.6099 371.814 24.1691 371.913 24.7282C371.921 24.8076 371.929 24.8886 372 24.9462V25.158V25.1565ZM352.405 17.1778H353.828C354.392 17.1747 354.949 17.1249 355.49 16.9473C356.764 16.5299 357.447 15.421 357.221 14.105C357.141 13.6378 356.91 13.2578 356.483 13.0117C355.938 12.6971 355.335 12.6426 354.729 12.6333C353.999 12.6239 353.271 12.6255 352.54 12.6286H351.618C351.075 12.6286 351.075 12.6286 350.967 13.1737L350.959 13.2048V13.208L350.951 13.25L350.766 14.144C350.571 15.0878 350.374 16.0316 350.172 16.9738C350.135 17.1529 350.188 17.1809 350.35 17.1794C350.859 17.1747 351.368 17.1763 351.879 17.1763H352.405V17.1778ZM367.617 13.1161L367.533 13.2407C367.496 13.2967 367.461 13.3544 367.427 13.412L366.508 15.0364C365.739 16.3913 364.972 17.7463 364.2 19.1012C364.1 19.2741 364.119 19.3193 364.322 19.3177C365.65 19.3115 366.977 19.313 368.304 19.3177C368.458 19.3177 368.513 19.3021 368.484 19.1152C368.383 18.4424 368.289 17.7665 368.194 17.0906V17.0781C368.052 16.0549 367.905 15.0317 367.751 14.01L367.749 14.0007C367.704 13.711 367.66 13.4167 367.617 13.1161ZM331.707 16.6C331.686 18.391 331.409 19.9749 330.652 21.4498C329.91 22.8966 328.83 24.0102 327.347 24.7142C325.493 25.5941 323.567 25.7187 321.623 25.1315C319.922 24.6207 318.699 23.5227 318.012 21.8594C317.522 20.6773 317.438 19.4516 317.524 18.1948C317.646 16.3944 318.119 14.7077 319.212 13.2422C320.556 11.4434 322.366 10.456 324.604 10.2442C325.877 10.1227 327.115 10.2676 328.282 10.8127C330.028 11.6287 331.069 13.0195 331.522 14.8697C331.672 15.488 331.709 16.1157 331.707 16.6ZM325.179 12.2953C324.623 12.2704 324.002 12.4043 323.406 12.6691C322.297 13.1597 321.523 13.9976 320.988 15.0551C320.137 16.7324 319.848 18.511 320.192 20.3627C320.354 21.2427 320.759 22.0276 321.496 22.5789C322.711 23.4916 324.078 23.5804 325.479 23.1443C326.659 22.7783 327.484 21.9404 328.072 20.8829C329.028 19.162 329.341 17.3164 329.023 15.3743C328.895 14.5707 328.571 13.8434 327.972 13.2718C327.221 12.5554 326.298 12.2829 325.179 12.2953Z" fill="white"/>
<path d="M316.063 15.4066H315.755C315.507 15.4035 315.257 15.4035 315.009 15.4098C314.838 15.416 314.788 15.363 314.783 15.1886C314.764 14.508 314.593 13.8679 314.154 13.3306C313.622 12.6812 312.897 12.3993 312.085 12.3183C309.622 12.0691 307.958 13.449 307.07 15.416C306.407 16.8768 306.177 18.4857 306.406 20.0649C306.575 21.2952 307.134 22.3153 308.271 22.9196C309.475 23.5582 311.401 23.622 312.575 22.605C313.279 21.993 313.719 21.2158 313.993 20.3405C314.069 20.1038 314.166 20.0135 314.427 20.0213C315.086 20.0431 315.745 20.0368 316.405 20.0244C316.611 20.0197 316.666 20.0664 316.611 20.272C316.269 21.5709 315.72 22.7577 314.746 23.7155C313.385 25.0548 311.712 25.5439 309.844 25.4644C308.54 25.4084 307.31 25.0907 306.23 24.3275C304.913 23.3993 304.171 22.102 303.885 20.543C303.643 19.241 303.73 17.939 303.993 16.6495C304.291 15.1824 304.889 13.8555 305.891 12.7232C306.738 11.7576 307.837 11.0287 309.073 10.6129C310.455 10.1426 311.864 10.0896 313.284 10.3668C314.477 10.6005 315.528 11.1144 316.319 12.0691C317.083 12.9895 317.357 14.0735 317.369 15.2462C317.37 15.402 317.291 15.4098 317.172 15.4082C316.904 15.4066 316.638 15.4051 316.371 15.4066H316.063Z" fill="white"/>
<path fill-rule="evenodd" clip-rule="evenodd" d="M298.176 20.0966H297.163C296.182 20.0997 295.2 20.0997 294.22 20.0919C293.988 20.0888 293.917 20.1651 293.904 20.3816C293.849 21.3145 293.901 22.224 294.425 23.0417C294.85 23.7036 295.456 24.0945 296.23 24.2378C297.352 24.4465 298.379 24.244 299.28 23.5291C299.834 23.0884 300.22 22.5168 300.463 21.8565C300.524 21.6883 300.603 21.626 300.784 21.6353C301.05 21.6493 301.316 21.6431 301.583 21.6369H301.654C301.806 21.6322 301.88 21.6462 301.819 21.8378C301.222 23.6755 300.081 24.9526 298.126 25.3311C296.923 25.5616 295.729 25.5024 294.61 24.9106C293.699 24.4278 293.075 23.6864 292.824 22.7099C292.163 20.134 292.669 17.7838 294.426 15.767C295.5 14.5335 296.914 13.9884 298.553 14.0273C299.465 14.0491 300.31 14.2718 301.035 14.8372C301.88 15.4944 302.301 16.3868 302.444 17.4225C302.541 18.1233 302.497 18.8242 302.454 19.525L302.433 19.863C302.423 20.0577 302.347 20.1028 302.159 20.1013C301.158 20.095 300.157 20.0966 299.154 20.0966H298.176ZM297.612 18.969L298.476 18.9675C299.269 18.9659 300.062 18.9643 300.853 18.9752C301.103 18.9784 301.176 18.8974 301.159 18.6638C301.151 18.5438 301.156 18.4224 301.159 18.2993C301.166 18.1763 301.167 18.0517 301.161 17.9287C301.108 17.1157 300.85 16.3899 300.223 15.8308C299.201 14.9197 297.37 14.9369 296.172 15.7763C295.14 16.499 294.539 17.5082 294.181 18.6887C294.114 18.9145 294.162 18.9752 294.397 18.9721C295.184 18.9659 295.972 18.9675 296.76 18.9675L297.612 18.969Z" fill="#0168AA"/>
<path d="M279.353 16.6719L272.235 18.3259L274.155 19.4051L277.524 18.5859L279.353 16.6719Z" fill="#0168AA"/>
<path d="M268.879 19.096L268.052 19.2907C267.407 19.4433 266.759 19.5959 266.113 19.7454C265.463 19.898 264.812 20.046 264.161 20.1893C263.959 20.2329 263.959 20.3014 264.093 20.4338C264.206 20.5475 264.316 20.6674 264.425 20.7873L265.289 21.7265C268.415 25.1201 271.54 28.5152 274.664 31.912C274.74 31.9945 274.796 32.0194 274.911 31.9852C275.476 31.8148 276.043 31.65 276.61 31.4852L276.931 31.3918L278.172 31.0289L281.807 29.9543L287.026 28.428C288.25 28.076 289.47 27.7163 290.689 27.3472H290.69L291.363 27.1447L291.303 27.0824C291.271 27.0466 291.237 27.0108 291.201 26.9781L291.08 26.8706L291.077 26.869C290.149 26.0452 289.219 25.2229 288.289 24.4021L287.375 23.6031C286.767 23.0736 286.159 22.5441 285.566 22.0021C284.958 21.4508 284.341 20.9073 283.717 20.3731L282.719 19.5227L281.921 20.7017C281.989 20.7174 283.139 21.7809 283.518 22.1315C283.532 22.1439 283.544 22.1554 283.555 22.1659C283.605 22.2115 283.634 22.239 283.638 22.242C284.524 23.0259 285.413 23.8067 286.301 24.5879L286.855 25.0749L287.958 26.0421L288.297 26.3364L288.48 26.4937L287.837 26.6884C287.375 26.8286 286.926 26.964 286.478 27.0949L283.827 27.8642C283.125 28.0695 282.423 28.2771 281.721 28.485L281.397 28.5806L277.811 29.6366C277.014 29.8671 276.218 30.0991 275.425 30.3374C275.272 30.3841 275.19 30.3577 275.087 30.244L271.221 26.0483L271.218 26.0452L269.085 23.7309L268.257 22.8275C267.783 22.3074 267.309 21.7888 266.829 21.2764C266.664 21.0988 266.735 21.0677 266.911 21.0272C267.091 20.9867 267.848 20.8089 268.924 20.5565L269.048 20.5272C269.154 20.5022 269.246 20.4817 269.332 20.4625C269.466 20.4327 269.586 20.4059 269.722 20.3699C269.739 20.3656 269.468 19.9706 269.229 19.6216C269.042 19.3491 268.875 19.1046 268.879 19.096Z" fill="#0168AA"/>
</g>
<defs>
<radialGradient id="paint0_radial_17379_45" cx="0" cy="0" r="1" gradientUnits="userSpaceOnUse" gradientTransform="translate(232.727 15.4848) scale(22.6797 19.9931)">
<stop stop-color="#01CFF7"/>
<stop offset="0.39" stop-color="#044F99"/>
<stop offset="0.84" stop-color="#051989"/>
</radialGradient>
</defs>
</svg>
